<svg width="18" height="18" viewBox="0 0 18 18" fill="none" xmlns="http://www.w3.org/2000/svg">
<path d="M13.54 10.04C11.63 10.04 10.09 11.6 10.09 13.52C10.09 15.44 11.63 17 13.54 17C15.45 17 17 15.44 17 13.52C17 11.6 15.45 10.04 13.54 10.04ZM13.77 16.09V15.79C13.77 15.67 13.67 15.57 13.54 15.57C13.42 15.57 13.32 15.67 13.32 15.79V16.09C12.08 15.99 11.09 14.99 10.99 13.74H11.29C11.41 13.74 11.51 13.64 11.51 13.52C11.51 13.4 11.41 13.3 11.29 13.3H10.99C11.09 12.05 12.08 11.06 13.32 10.95V11.25C13.32 11.37 13.42 11.47 13.54 11.47C13.67 11.47 13.77 11.37 13.77 11.25V10.95C15 11.06 15.99 12.05 16.1 13.3H15.8C15.68 13.3 15.58 13.4 15.58 13.52C15.58 13.64 15.68 13.74 15.8 13.74H16.1C15.99 14.99 15 15.99 13.77 16.09ZM14.83 13.18H14.03C13.92 13.03 13.75 12.93 13.54 12.93C13.54 12.93 13.54 12.93 13.53 12.93L12.8 11.89C12.7 11.74 12.49 11.71 12.34 11.81C12.19 11.92 12.15 12.13 12.26 12.28L12.99 13.32C12.97 13.38 12.95 13.45 12.95 13.52C12.95 13.85 13.22 14.11 13.54 14.11C13.75 14.11 13.92 14.01 14.03 13.86H14.83C15.02 13.86 15.17 13.71 15.17 13.52C15.17 13.33 15.02 13.18 14.83 13.18ZM4.33 6.59C4.93 6.59 5.42 6.1 5.42 5.49V3.1C5.42 2.49 4.93 2 4.33 2C3.72 2 3.23 2.49 3.23 3.1V5.49C3.23 6.1 3.72 6.59 4.33 6.59ZM11.03 6.59C11.63 6.59 12.12 6.1 12.12 5.49V3.1C12.12 2.49 11.63 2 11.03 2C10.42 2 9.93 2.49 9.93 3.1V5.49C9.93 6.1 10.42 6.59 11.03 6.59ZM5.81 9.65C5.81 9.34 5.56 9.08 5.24 9.08H4.2C3.88 9.08 3.63 9.34 3.63 9.65V10.71C3.63 11.02 3.88 11.28 4.2 11.28H5.24C5.56 11.28 5.81 11.02 5.81 10.71V9.65ZM8.77 9.65C8.77 9.34 8.51 9.08 8.2 9.08H7.15C6.84 9.08 6.59 9.34 6.59 9.65V10.71C6.59 11.02 6.84 11.28 7.15 11.28H8.2C8.51 11.28 8.77 11.02 8.77 10.71V9.65ZM10.11 9.08C9.8 9.08 9.55 9.34 9.55 9.65V10.71C9.55 10.99 9.76 11.22 10.03 11.26C10.44 10.61 11.03 10.08 11.73 9.74V9.65C11.73 9.34 11.47 9.08 11.16 9.08H10.11ZM4.2 11.94C3.88 11.94 3.63 12.2 3.63 12.51V13.57C3.63 13.88 3.88 14.14 4.2 14.14H5.24C5.56 14.14 5.81 13.88 5.81 13.57V12.51C5.81 12.2 5.56 11.94 5.24 11.94H4.2ZM8.2 11.94H7.15C6.84 11.94 6.59 12.2 6.59 12.51V13.57C6.59 13.88 6.84 14.14 7.15 14.14H8.2C8.51 14.14 8.77 13.88 8.77 13.57V12.51C8.77 12.2 8.51 11.94 8.2 11.94ZM9.73 15.23H4.41C3.5 15.23 2.75 14.48 2.75 13.56V7.96H12.61V9.43C12.91 9.36 13.22 9.32 13.54 9.32C13.82 9.32 14.09 9.34 14.36 9.4V4.14H12.78V5.49C12.78 6.46 11.99 7.25 11.03 7.25C10.06 7.25 9.28 6.46 9.28 5.49V4.14H6.08V5.49C6.08 6.46 5.29 7.25 4.33 7.25C3.36 7.25 2.58 6.46 2.58 5.49V4.14H1V13.56C1 15.45 2.53 16.99 4.41 16.99H10.94C11.02 16.99 11.1 16.98 11.17 16.98C10.55 16.54 10.05 15.94 9.73 15.23Z" fill="white"/>
</svg>
