<svg width="50" height="40" viewBox="0 0 50 40" fill="none" xmlns="http://www.w3.org/2000/svg">
<path d="M48.0769 8.46155H46.1539V29.6154C46.1539 32.7965 43.5657 35.3846 40.3846 35.3846H7.69226V37.3076C7.69226 38.3697 8.5533 39.2307 9.61531 39.2307H48.0768C49.1388 39.2307 49.9999 38.3697 49.9999 37.3076V10.3846C50 9.32258 49.1389 8.46155 48.0769 8.46155Z" fill="#05172D"/>
<path d="M40.3846 0.769287H1.92305C0.861035 0.769287 0 1.63032 0 2.69233V29.6154C0 30.6774 0.861035 31.5384 1.92305 31.5384H7.69229H40.3846C41.4466 31.5384 42.3076 30.6774 42.3076 29.6154V8.46157V2.69233C42.3077 1.63032 41.4467 0.769287 40.3846 0.769287ZM17.8205 24.4873H7.05127C7.05127 20.4542 10.3205 17.1852 14.3532 17.1852C11.7607 17.1852 9.65898 15.0835 9.65898 12.4911C9.65898 9.89839 11.7609 7.79692 14.3532 7.79692C16.9455 7.79692 19.0475 9.89849 19.0475 12.4911C19.0475 15.0835 16.9457 17.1852 14.3532 17.1852C17.6237 17.1852 20.3917 19.3353 21.3213 22.2993C21.5378 22.9902 21.6552 23.725 21.6552 24.4873H17.8205ZM32.6923 22.5641H26.7397C25.6777 22.5641 24.8167 21.7031 24.8167 20.6411C24.8167 20.4377 24.8487 20.2419 24.9072 20.058C25.1543 19.281 25.8811 18.7179 26.7398 18.7179H27.0514H32.6924C33.7544 18.7179 34.6154 19.579 34.6154 20.641C34.6154 21.7031 33.7544 22.5641 32.6923 22.5641ZM32.6923 13.5898H26.7397C25.6777 13.5898 24.8167 12.7288 24.8167 11.6667C24.8167 10.6047 25.6777 9.7437 26.7397 9.7437H32.6923C33.7543 9.7437 34.6153 10.6047 34.6153 11.6667C34.6154 12.7288 33.7544 13.5898 32.6923 13.5898Z" fill="#05172D"/>
</svg>
