<svg width="50" height="50" viewBox="0 0 50 50" fill="none" xmlns="http://www.w3.org/2000/svg">
<path d="M18.2171 27.5847C18.2171 26.9584 17.709 26.4509 17.0822 26.4509H13.1218C12.4957 26.4509 11.9875 26.9584 11.9875 27.5847V31.5445C11.9875 32.1717 12.4957 32.6793 13.1218 32.6793H17.0822C17.709 32.6793 18.2171 32.1717 18.2171 31.5445V27.5847Z" fill="#678B05"/>
<path d="M28.1144 27.5847C28.1144 26.9584 27.6062 26.4509 26.9806 26.4509H23.0198C22.3936 26.4509 21.8855 26.9584 21.8855 27.5847V31.5445C21.8855 32.1717 22.3936 32.6793 23.0198 32.6793H26.9806C27.6062 32.6793 28.1144 32.1717 28.1144 31.5445V27.5847Z" fill="#678B05"/>
<path d="M38.0125 27.5847C38.0125 26.9584 37.5043 26.4509 36.8782 26.4509H32.9179C32.291 26.4509 31.783 26.9584 31.783 27.5847V31.5445C31.783 32.1717 32.291 32.6793 32.9179 32.6793H36.8782C37.5043 32.6793 38.0125 32.1717 38.0125 31.5445V27.5847Z" fill="#678B05"/>
<path d="M18.2171 37.4833C18.2171 36.8559 17.709 36.3489 17.0822 36.3489H13.1218C12.4957 36.3489 11.9875 36.8559 11.9875 37.4833V41.4424C11.9875 42.0691 12.4957 42.5766 13.1218 42.5766H17.0822C17.709 42.5766 18.2171 42.069 18.2171 41.4424V37.4833Z" fill="#678B05"/>
<path d="M28.1144 37.4833C28.1144 36.8559 27.6062 36.3489 26.9806 36.3489H23.0198C22.3936 36.3489 21.8855 36.8559 21.8855 37.4833V41.4424C21.8855 42.0691 22.3936 42.5766 23.0198 42.5766H26.9806C27.6062 42.5766 28.1144 42.069 28.1144 41.4424V37.4833Z" fill="#678B05"/>
<path d="M38.0125 37.4833C38.0125 36.8559 37.5043 36.3489 36.8787 36.3489H32.9179C32.291 36.3489 31.783 36.8559 31.783 37.4833V41.4424C31.783 42.0691 32.291 42.5766 32.9179 42.5766H36.8787C37.5043 42.5766 38.0125 42.069 38.0125 41.4424V37.4833Z" fill="#678B05"/>
<path d="M45.0939 5.56737V11.6157C45.0939 14.3495 42.8762 16.5525 40.1428 16.5525H37.0195C34.2859 16.5525 32.0388 14.3495 32.0388 11.6157V5.54565H17.9612V11.6157C17.9612 14.3495 15.7141 16.5525 12.981 16.5525H9.85704C7.12377 16.5525 4.90612 14.3495 4.90612 11.6157V5.56737C2.51721 5.63938 0.554199 7.61612 0.554199 10.0458V45.4918C0.554199 47.9672 2.56054 50.0002 5.0359 50.0002H44.964C47.4357 50.0002 49.4457 47.963 49.4457 45.4918V10.0458C49.4457 7.61612 47.4828 5.63938 45.0939 5.56737ZM43.6432 43.2845C43.6432 44.3543 42.7759 45.2222 41.7057 45.2222H8.20888C7.13873 45.2222 6.27137 44.3543 6.27137 43.2845V24.9754C6.27137 23.9052 7.13862 23.0373 8.20888 23.0373H41.7056C42.7758 23.0373 43.6431 23.9052 43.6431 24.9754L43.6432 43.2845Z" fill="#678B05"/>
<path d="M9.84598 13.3099H12.9354C13.8731 13.3099 14.6334 12.5507 14.6334 11.613V1.69752C14.6334 0.759702 13.8731 0 12.9354 0H9.84598C8.90816 0 8.14795 0.759702 8.14795 1.69752V11.613C8.14795 12.5507 8.90816 13.3099 9.84598 13.3099Z" fill="#678B05"/>
<path d="M36.9797 13.3099H40.0691C41.0062 13.3099 41.7665 12.5507 41.7665 11.613V1.69752C41.7666 0.759702 41.0063 0 40.0691 0H36.9797C36.0421 0 35.2817 0.759702 35.2817 1.69752V11.613C35.2817 12.5507 36.0421 13.3099 36.9797 13.3099Z" fill="#678B05"/>
</svg>
