<svg width="50" height="44" viewBox="0 0 50 44" fill="none" xmlns="http://www.w3.org/2000/svg">
<path d="M43.75 6.25H37.5L31.25 0H18.7484L12.5 6.25H6.25C6.25 6.25 0 6.25 0 12.5V31.25C0 37.5 6.25 37.5 6.25 37.5C6.25 37.5 15.0969 37.5 24.2469 37.5C26.7687 41.2672 31.0609 43.7484 35.9375 43.75C41.9922 43.7469 47.1359 39.9156 49.1188 34.5484C49.9922 32.9313 50 31.25 50 31.25C50 31.25 50 18.75 50 12.5C50 6.25 43.75 6.25 43.75 6.25ZM21.9266 30.7188C18.2594 29.45 15.625 25.9781 15.625 21.875C15.625 16.7 19.8188 12.5 25 12.5C27.9906 12.5 30.6359 13.9187 32.3531 16.1031C26.325 17.6891 21.875 23.1594 21.875 29.6875C21.875 30.0359 21.9031 30.3766 21.9266 30.7188ZM35.9375 40.4422C29.9984 40.4281 25.1938 35.6234 25.1797 29.6875C25.1938 23.7484 29.9984 18.9438 35.9375 18.9297C41.8734 18.9438 46.6781 23.7484 46.6922 29.6875C46.6781 35.6234 41.8734 40.4281 35.9375 40.4422Z" fill="#FDFDFD"/>
<path d="M37.5031 21.875H34.375V28.125H28.125V31.25H34.375V37.5H37.5031V31.25H43.75V28.125H37.5031V21.875Z" fill="#FDFDFD"/>
</svg>
