<svg width="50" height="42" viewBox="0 0 50 42" fill="none" xmlns="http://www.w3.org/2000/svg">
<path d="M13.5137 41.2174H22.3457V32.1861H27.6544V41.2174H36.4864V0.782593H13.5137V41.2174ZM26.6116 5.54785H31.9202V10.8566H26.6116V5.54785ZM26.6116 14.0798H31.9202V19.3885H26.6116V14.0798ZM26.6116 22.6115H31.9202V27.9202H26.6116V22.6115ZM18.0797 5.54785H23.3884V10.8566H18.0797V5.54785ZM18.0797 14.0798H23.3884V19.3885H18.0797V14.0798ZM18.0797 22.6115H23.3884V27.9202H18.0797V22.6115Z" fill="#05172D"/>
<path d="M38.5486 4.40479V32.9953H41.9592V41.2174H50V4.40479H38.5486ZM45.843 29.1116H41.0098V24.2785H45.8429V29.1116H45.843ZM45.843 21.3439H41.0098V16.5109H45.8429V21.3439H45.843ZM45.843 13.5763H41.0098V8.74331H45.8429V13.5763H45.843Z" fill="#05172D"/>
<path d="M0 41.2174H8.04084V32.9953H11.4514V4.40479H0V41.2174ZM4.15709 8.74331H8.99022V13.5763H4.15709V8.74331ZM4.15709 16.5109H8.99022V21.3439H4.15709V16.5109ZM4.15709 24.2783H8.99022V29.1113H4.15709V24.2783Z" fill="#05172D"/>
</svg>
