<svg width="31" height="31" viewBox="0 0 31 31" fill="none" xmlns="http://www.w3.org/2000/svg">
<path d="M15.3746 0.659546C23.7511 0.659546 30.5446 7.45316 30.5446 15.8298C30.5446 24.2064 23.7511 31 15.3746 31C6.99152 31 0.20459 24.2064 0.20459 15.8298C0.20459 7.45316 6.99152 0.659546 15.3746 0.659546Z" fill="url(#paint0_linear)"/>
<path d="M6.91805 16.3C6.91805 14.4874 8.32126 13.014 10.0475 13.014H14.0855V11H10.0475C7.26128 11 5 13.3744 5 16.3C5 19.2256 7.26128 21.6 10.0475 21.6H14.0855V19.586H10.0475C8.32126 19.586 6.91805 18.1126 6.91805 16.3ZM11.057 17.36H19.133V15.24H11.057V17.36ZM20.1425 11H16.1045V13.014H20.1425C21.8687 13.014 23.272 14.4874 23.272 16.3C23.272 18.1126 21.8687 19.586 20.1425 19.586H16.1045V21.6H20.1425C22.9287 21.6 25.19 19.2256 25.19 16.3C25.19 13.3744 22.9287 11 20.1425 11Z" fill="white"/>
<defs>
<linearGradient id="paint0_linear" x1="15.3726" y1="31" x2="15.3726" y2="0.659546" gradientUnits="userSpaceOnUse">
<stop stop-color="#88AF1B"/>
<stop offset="1" stop-color="#88AF1B"/>
</linearGradient>
</defs>
</svg>
