<svg width="32" height="32" viewBox="0 0 32 32" fill="none" xmlns="http://www.w3.org/2000/svg">
<path d="M31.01 11.85C29.84 10.87 28.06 10.99 27.05 12.19L26.44 12.91L30.75 16.53L31.33 15.81C32.33 14.62 32.2 12.85 31.01 11.85ZM18.84 21.91L18.52 22.29C18.24 22.62 18.04 23.02 17.94 23.44L17.06 27.09C16.98 27.43 17.1 27.8 17.37 28.02C17.64 28.25 18.01 28.31 18.35 28.17L21.79 26.67C22.19 26.5 22.55 26.24 22.82 25.9L23.15 25.52L18.84 21.91ZM25.23 14.34L20.05 20.48L24.36 24.09L29.54 17.96L25.23 14.34ZM23.5 4.16L19.94 0.77C19.6 0.45 19.19 0.26 18.75 0.14V5.62H24.32C24.2 5.07 23.92 4.55 23.5 4.16ZM16.11 23.01C16.28 22.3 16.61 21.64 17.08 21.09L24.38 12.45V7.5H17.81C17.3 7.5 16.88 7.08 16.88 6.56V0H2.81C1.26 0 0 1.26 0 2.81V29.19C0 30.74 1.26 32 2.81 32H21.57C23.12 32 24.38 30.74 24.38 29.19V26.97L24.26 27.11C23.8 27.66 23.2 28.11 22.54 28.39L19.09 29.89C18.12 30.31 17 30.16 16.17 29.46C15.35 28.77 14.99 27.7 15.24 26.65L16.11 23.01ZM4.69 5.62H14.06C14.58 5.62 15 6.04 15 6.56C15 7.08 14.58 7.5 14.06 7.5H4.69C4.17 7.5 3.75 7.08 3.75 6.56C3.75 6.04 4.17 5.62 4.69 5.62ZM4.69 11.31H19.69C20.21 11.31 20.63 11.73 20.63 12.25C20.63 12.77 20.21 13.19 19.69 13.19H4.69C4.17 13.19 3.75 12.77 3.75 12.25C3.75 11.73 4.17 11.31 4.69 11.31ZM12.19 24.44H4.69C4.17 24.44 3.75 24.02 3.75 23.5C3.75 22.98 4.17 22.56 4.69 22.56H12.19C12.71 22.56 13.13 22.98 13.13 23.5C13.13 24.02 12.71 24.44 12.19 24.44ZM4.69 18.81C4.17 18.81 3.75 18.39 3.75 17.87C3.75 17.36 4.17 16.94 4.69 16.94H15.94C16.46 16.94 16.88 17.36 16.88 17.87C16.88 18.39 16.46 18.81 15.94 18.81H4.69Z" fill="#F2F2F2"/>
</svg>
