<svg width="35" height="30" viewBox="0 0 35 30" fill="none" xmlns="http://www.w3.org/2000/svg">
<path d="M32.53 8.40999H31.58V19.1C31.58 20.77 30.62 22.27 28.71 22.27H9.96001V22.78C9.96001 24.25 11.61 25.74 13.3 25.74H27.64L33.12 29.01L32.32 25.74H32.53C34.23 25.74 34.99 24.25 34.99 22.78V10.95C34.99 9.47999 34.23 8.40999 32.53 8.40999ZM25.91 0.98999H4.13001C2.21001 0.98999 0.0100098 2.70999 0.0100098 4.37999V17.78C0.0100098 19.31 1.88001 20.42 3.67001 20.59L2.50001 25.08L9.98001 20.62H25.91C27.82 20.62 29.59 19.44 29.59 17.78V6.93999V4.37999C29.59 2.70999 27.82 0.98999 25.91 0.98999ZM7.45001 12.3C6.37001 12.3 5.48001 11.4 5.48001 10.3C5.48001 9.19999 6.37001 8.29999 7.45001 8.29999C8.54001 8.29999 9.42001 9.19999 9.42001 10.3C9.42001 11.4 8.54001 12.3 7.45001 12.3ZM14.8 12.3C13.71 12.3 12.83 11.4 12.83 10.3C12.83 9.19999 13.71 8.29999 14.8 8.29999C15.89 8.29999 16.77 9.19999 16.77 10.3C16.77 11.4 15.89 12.3 14.8 12.3ZM22.15 12.3C21.06 12.3 20.18 11.4 20.18 10.3C20.18 9.19999 21.06 8.29999 22.15 8.29999C23.23 8.29999 24.12 9.19999 24.12 10.3C24.12 11.4 23.23 12.3 22.15 12.3Z" fill="#F2F2F2"/>
</svg>
