<svg width="37" height="36" viewBox="0 0 37 36" fill="none" xmlns="http://www.w3.org/2000/svg">
<path d="M36.48 3.88L33.17 0.52C32.83 0.18 32.38 0 31.93 0C31.48 0 31.04 0.18 30.69 0.52L28.05 3.2L33.84 9.07L36.48 6.39C37.17 5.69 37.17 4.57 36.48 3.88ZM10.86 20.61L16.65 26.48L32.6 10.32L26.81 4.46L10.86 20.61ZM9.61 21.87L8.38 28.98L15.4 27.73L9.61 21.87ZM25.61 32.15H3.79V10H19.19L22.99 6.15H2.45C1.1 6.15 0 7.27 0 8.64V33.51C0 34.88 1.1 36 2.45 36H26.95C28.3 36 29.4 34.88 29.4 33.51V15.73L25.61 19.57V32.15Z" fill="white"/>
</svg>
