<svg width="50" height="50" viewBox="0 0 50 50" fill="none" xmlns="http://www.w3.org/2000/svg">
<path d="M46.4837 13.2405H45.1258V32.3162C45.1258 35.2962 43.7536 37.9729 41.0234 37.9729H14.2224V38.8829C14.2224 41.5061 16.5809 44.1649 18.9966 44.1649H39.494L47.327 50L46.1835 44.1649H46.4837C48.9137 44.1649 50 41.5061 50 38.8829V17.773C50 15.1499 48.9137 13.2405 46.4837 13.2405ZM37.0211 0H5.88908C3.14465 0 0 3.06924 0 6.04925V29.9607C0 32.6909 2.67296 34.6717 5.23156 34.975L3.55918 42.9872L14.251 35.0286H37.0211C39.7513 35.0286 42.2813 32.9229 42.2813 29.9607V10.6174V6.04925C42.2813 3.06924 39.7513 0 37.0211 0ZM10.6346 20.182C9.09091 20.182 7.81875 18.576 7.81875 16.6131C7.81875 14.6503 9.09091 13.0443 10.6346 13.0443C12.1927 13.0443 13.4505 14.6503 13.4505 16.6131C13.4505 18.576 12.1927 20.182 10.6346 20.182ZM21.1406 20.182C19.5826 20.182 18.3248 18.576 18.3248 16.6131C18.3248 14.6503 19.5826 13.0443 21.1406 13.0443C22.6987 13.0443 23.9565 14.6503 23.9565 16.6131C23.9565 18.576 22.6987 20.182 21.1406 20.182ZM31.6467 20.182C30.0886 20.182 28.8308 18.576 28.8308 16.6131C28.8308 14.6503 30.0886 13.0443 31.6467 13.0443C33.1904 13.0443 34.4625 14.6503 34.4625 16.6131C34.4625 18.576 33.1904 20.182 31.6467 20.182Z" fill="#F2F2F2"/>
</svg>
