<svg width="50" height="50" viewBox="0 0 50 50" fill="none" xmlns="http://www.w3.org/2000/svg">
<path d="M37.6112 27.8889C32.3056 27.8889 28.0278 32.2222 28.0278 37.5555C28.0278 42.8889 32.3056 47.2222 37.6112 47.2222C42.9167 47.2222 47.2223 42.8889 47.2223 37.5555C47.2223 32.2222 42.9167 27.8889 37.6112 27.8889ZM38.2501 44.6944V43.8611C38.2501 43.5278 37.9723 43.25 37.6112 43.25C37.2778 43.25 37.0001 43.5278 37.0001 43.8611V44.6944C33.5556 44.4167 30.8056 41.6389 30.5278 38.1667H31.3612C31.6945 38.1667 31.9723 37.8889 31.9723 37.5555C31.9723 37.2222 31.6945 36.9444 31.3612 36.9444H30.5278C30.8056 33.4722 33.5556 30.7222 37.0001 30.4167V31.25C37.0001 31.5833 37.2778 31.8611 37.6112 31.8611C37.9723 31.8611 38.2501 31.5833 38.2501 31.25V30.4167C41.6667 30.7222 44.4167 33.4722 44.7223 36.9444H43.8889C43.5556 36.9444 43.2778 37.2222 43.2778 37.5555C43.2778 37.8889 43.5556 38.1667 43.8889 38.1667H44.7223C44.4167 41.6389 41.6667 44.4167 38.2501 44.6944ZM41.1945 36.6111H38.9723C38.6667 36.1944 38.1945 35.9167 37.6112 35.9167C37.6112 35.9167 37.6112 35.9167 37.5834 35.9167L35.5556 33.0278C35.2778 32.6111 34.6945 32.5278 34.2778 32.8055C33.8612 33.1111 33.7501 33.6944 34.0556 34.1111L36.0834 37C36.0278 37.1667 35.9723 37.3611 35.9723 37.5555C35.9723 38.4722 36.7223 39.1944 37.6112 39.1944C38.1945 39.1944 38.6667 38.9167 38.9723 38.5H41.1945C41.7223 38.5 42.1389 38.0833 42.1389 37.5555C42.1389 37.0278 41.7223 36.6111 41.1945 36.6111ZM12.0278 18.3055C13.6945 18.3055 15.0556 16.9444 15.0556 15.25V8.6111C15.0556 6.91665 13.6945 5.55554 12.0278 5.55554C10.3334 5.55554 8.97228 6.91665 8.97228 8.6111V15.25C8.97228 16.9444 10.3334 18.3055 12.0278 18.3055ZM30.6389 18.3055C32.3056 18.3055 33.6667 16.9444 33.6667 15.25V8.6111C33.6667 6.91665 32.3056 5.55554 30.6389 5.55554C28.9445 5.55554 27.5834 6.91665 27.5834 8.6111V15.25C27.5834 16.9444 28.9445 18.3055 30.6389 18.3055ZM16.1389 26.8055C16.1389 25.9444 15.4445 25.2222 14.5556 25.2222H11.6667C10.7778 25.2222 10.0834 25.9444 10.0834 26.8055V29.75C10.0834 30.6111 10.7778 31.3333 11.6667 31.3333H14.5556C15.4445 31.3333 16.1389 30.6111 16.1389 29.75V26.8055ZM24.3612 26.8055C24.3612 25.9444 23.6389 25.2222 22.7778 25.2222H19.8612C19.0001 25.2222 18.3056 25.9444 18.3056 26.8055V29.75C18.3056 30.6111 19.0001 31.3333 19.8612 31.3333H22.7778C23.6389 31.3333 24.3612 30.6111 24.3612 29.75V26.8055ZM28.0834 25.2222C27.2223 25.2222 26.5278 25.9444 26.5278 26.8055V29.75C26.5278 30.5278 27.1112 31.1667 27.8612 31.2778C29.0001 29.4722 30.6389 28 32.5834 27.0555V26.8055C32.5834 25.9444 31.8612 25.2222 31.0001 25.2222H28.0834ZM11.6667 33.1667C10.7778 33.1667 10.0834 33.8889 10.0834 34.75V37.6944C10.0834 38.5555 10.7778 39.2778 11.6667 39.2778H14.5556C15.4445 39.2778 16.1389 38.5555 16.1389 37.6944V34.75C16.1389 33.8889 15.4445 33.1667 14.5556 33.1667H11.6667ZM22.7778 33.1667H19.8612C19.0001 33.1667 18.3056 33.8889 18.3056 34.75V37.6944C18.3056 38.5555 19.0001 39.2778 19.8612 39.2778H22.7778C23.6389 39.2778 24.3612 38.5555 24.3612 37.6944V34.75C24.3612 33.8889 23.6389 33.1667 22.7778 33.1667ZM27.0278 42.3055H12.2501C9.72228 42.3055 7.63894 40.2222 7.63894 37.6667V22.1111H35.0278V26.1944C35.8612 26 36.7223 25.8889 37.6112 25.8889C38.3889 25.8889 39.1389 25.9444 39.8889 26.1111V11.5H35.5001V15.25C35.5001 17.9444 33.3056 20.1389 30.6389 20.1389C27.9445 20.1389 25.7778 17.9444 25.7778 15.25V11.5H16.8889V15.25C16.8889 17.9444 14.6945 20.1389 12.0278 20.1389C9.33339 20.1389 7.16672 17.9444 7.16672 15.25V11.5H2.77783V37.6667C2.77783 42.9167 7.02783 47.1944 12.2501 47.1944H30.3889C30.6112 47.1944 30.8334 47.1667 31.0278 47.1667C29.3056 45.9444 27.9167 44.2778 27.0278 42.3055Z" fill="white"/>
</svg>
