<svg width="404" height="422" viewBox="0 0 404 422" fill="none" xmlns="http://www.w3.org/2000/svg">
<path d="M121.035 276.525C121.035 301.561 100.69 321.857 75.5951 321.857C50.5 321.857 30.1554 301.561 30.1554 276.525C30.1554 251.49 50.5 231.193 75.5951 231.193C100.69 231.193 121.035 251.49 121.035 276.525ZM120.308 415.818H30.8824C17.2505 415.818 6.19629 404.79 6.19629 391.191V391.092C6.19629 352.856 37.2688 321.857 75.5951 321.857C113.921 321.857 144.994 352.856 144.994 391.092V391.191C144.994 404.79 133.94 415.818 120.308 415.818Z" fill="#A6CE39"/>
<path d="M75.5953 231.193C71.295 231.193 67.1435 231.803 63.2026 232.916C82.2708 238.294 96.2497 255.78 96.2497 276.525C96.2497 297.271 82.2708 314.757 63.2026 320.135C67.1435 321.248 71.295 321.857 75.5953 321.857C100.69 321.857 121.035 301.561 121.035 276.525C121.035 251.49 100.69 231.193 75.5953 231.193ZM75.5953 321.857C71.3653 321.857 67.2261 322.257 63.2026 322.982C95.6135 328.814 120.209 357.076 120.209 391.092V391.191C120.209 404.79 109.155 415.818 95.5226 415.818H120.308C133.94 415.818 144.994 404.79 144.994 391.191V391.092C144.994 352.856 113.922 321.857 75.5953 321.857Z" fill="#52B833"/>
<path d="M373.845 276.525C373.845 301.561 353.5 321.857 328.405 321.857C303.31 321.857 282.965 301.561 282.965 276.525C282.965 251.49 303.31 231.193 328.405 231.193C353.5 231.193 373.845 251.49 373.845 276.525ZM373.118 415.818H283.692C270.06 415.818 259.006 404.79 259.006 391.191V391.092C259.006 352.856 290.079 321.857 328.405 321.857C366.731 321.857 397.804 352.856 397.804 391.092V391.191C397.804 404.79 386.749 415.818 373.118 415.818Z" fill="#3A67B1"/>
<path d="M328.405 231.193C324.105 231.193 319.953 231.803 316.012 232.916C335.08 238.294 349.059 255.78 349.059 276.525C349.059 297.271 335.08 314.757 316.012 320.135C319.953 321.248 324.105 321.857 328.405 321.857C353.5 321.857 373.845 301.561 373.845 276.525C373.845 251.49 353.5 231.193 328.405 231.193ZM328.405 321.857C324.175 321.857 320.036 322.257 316.012 322.982C348.423 328.814 373.018 357.076 373.018 391.092V391.191C373.018 404.79 361.964 415.818 348.332 415.818H373.117C386.749 415.818 397.804 404.79 397.804 391.191V391.092C397.804 352.856 366.731 321.857 328.405 321.857Z" fill="#0F3982"/>
<path d="M247.44 276.525C247.44 301.561 227.095 321.857 202 321.857C176.905 321.857 156.56 301.561 156.56 276.525C156.56 251.49 176.905 231.193 202 231.193C227.095 231.193 247.44 251.49 247.44 276.525ZM246.712 415.818H157.287C143.655 415.818 132.601 404.79 132.601 391.191V391.092C132.601 352.856 163.674 321.857 202 321.857C240.326 321.857 271.399 352.856 271.399 391.092V391.191C271.399 404.79 260.344 415.818 246.712 415.818Z" fill="#FFDB43"/>
<path d="M202 231.193C197.7 231.193 193.548 231.803 189.607 232.916C208.676 238.294 222.654 255.78 222.654 276.525C222.654 297.271 208.676 314.757 189.607 320.135C193.548 321.248 197.7 321.857 202 321.857C227.095 321.857 247.44 301.561 247.44 276.525C247.44 251.49 227.095 231.193 202 231.193ZM202 321.857C197.77 321.857 193.631 322.257 189.607 322.982C222.018 328.814 246.614 357.076 246.614 391.092V391.191C246.614 404.79 235.559 415.818 221.927 415.818H246.713C260.345 415.818 271.399 404.79 271.399 391.191V391.092C271.399 352.856 240.326 321.857 202 321.857Z" fill="#FFBB43"/>
<path d="M231.226 29.062H342.966C362.985 29.062 379.215 45.2373 379.215 65.1958V152.209C379.215 172.167 362.985 188.342 342.966 188.342H307.618C304.867 234.651 273.278 232.512 260.712 229.788C259.708 229.57 259.737 228.136 260.754 227.954C284.857 223.652 274.406 188.342 274.406 188.342H231.23C211.208 188.342 194.978 172.167 194.978 152.209V65.1958C194.978 45.2373 211.208 29.062 231.226 29.062Z" fill="#A6CE39"/>
<path d="M342.966 29.062H318.181C338.199 29.062 354.429 45.2373 354.429 65.1958V152.209C354.429 172.167 338.199 188.342 318.181 188.342H342.966C362.984 188.342 379.215 172.167 379.215 152.209V65.1958C379.215 45.2373 362.984 29.062 342.966 29.062Z" fill="#52B833"/>
<path d="M172.774 6.18164H61.0336C41.0154 6.18164 24.7852 22.3611 24.7852 42.3154V129.332C24.7852 149.291 41.0154 165.466 61.0336 165.466H96.3816C99.1327 211.771 130.722 209.636 143.288 206.912C144.292 206.693 144.263 205.259 143.246 205.078C119.143 200.771 129.594 165.466 129.594 165.466H172.77C192.792 165.466 209.022 149.291 209.022 129.332V42.3154C209.022 22.3611 192.792 6.18164 172.774 6.18164Z" fill="#A6CE39"/>
<path d="M172.774 6.18164H147.989C168.007 6.18164 184.237 22.3611 184.237 42.3154V129.332C184.237 149.287 168.007 165.466 147.989 165.466H172.774C192.792 165.466 209.023 149.291 209.023 129.332V42.3154C209.023 22.3611 192.792 6.18164 172.774 6.18164Z" fill="#52B833"/>
<path d="M168.127 73.6852C168.127 91.3358 154.078 112.131 119.391 130.441C117.842 131.253 115.966 131.253 114.417 130.441C79.7303 112.131 65.6812 91.3399 65.6812 73.6852C65.6812 57.9838 76.1323 44.5078 91.2926 44.5078C102.57 44.5078 110.15 50.2815 113.979 54.1718C115.57 55.7831 118.238 55.7831 119.829 54.1718C123.658 50.2815 131.238 44.5078 142.516 44.5078C157.676 44.5078 168.127 57.9838 168.127 73.6852Z" fill="#CF394E"/>
<path d="M142.515 44.5078C137.306 44.5078 132.899 45.7441 129.276 47.4544C137.942 52.2596 143.341 62.3975 143.341 73.6852C143.341 89.5514 131.986 107.952 104.511 124.803C107.609 126.703 110.902 128.586 114.417 130.441C115.966 131.253 117.842 131.253 119.391 130.441C154.078 112.131 168.127 91.3399 168.127 73.6852C168.127 57.9838 157.676 44.5078 142.515 44.5078Z" fill="#AF1B2F"/>
<path d="M93.1925 284.759C93.114 284.805 84.9473 289.144 75.595 289.144C66.2551 289.144 58.1337 284.838 57.9809 284.755C54.9819 283.119 51.2269 284.211 49.5787 287.195C47.9263 290.187 49.021 293.945 52.02 295.594C52.4579 295.837 62.9421 301.512 75.595 301.512C88.2479 301.512 98.732 295.837 99.1699 295.594C102.169 293.945 103.264 290.187 101.611 287.195C99.9589 284.207 96.1957 283.115 93.1925 284.759ZM69.9646 264.142C69.9646 267.554 67.1886 270.323 63.7683 270.323C60.3438 270.323 57.5719 267.554 57.5719 264.142C57.5719 260.725 60.3438 257.96 63.7683 257.96C67.1886 257.96 69.9646 260.725 69.9646 264.142ZM93.618 264.142C93.618 267.554 90.8462 270.323 87.4217 270.323C84.0013 270.323 81.2254 267.554 81.2254 264.142C81.2254 260.725 84.0013 257.96 87.4217 257.96C90.8462 257.96 93.618 260.725 93.618 264.142Z" fill="#05162D"/>
<path fill-rule="evenodd" clip-rule="evenodd" d="M404 391.092V391.191C404 408.178 390.145 422 373.118 422H283.692C276.971 422 270.494 419.808 265.198 415.855C260.043 419.713 253.644 422 246.713 422H157.287C150.356 422 143.957 419.713 138.802 415.855C133.506 419.808 127.029 422 120.308 422H30.8825C13.855 422 0 408.178 0 391.191V391.092C0 380.703 2.08196 370.639 6.18806 361.173C7.54712 358.041 11.1906 356.598 14.3342 357.954C17.4736 359.306 18.9194 362.945 17.5604 366.077C14.1317 373.985 12.3926 382.4 12.3926 391.092V391.191C12.3926 401.362 20.6874 409.637 30.8825 409.637H120.308C123.976 409.637 127.533 408.541 130.532 406.554C127.913 402.029 126.405 396.783 126.405 391.191V391.092C126.405 381.024 128.396 371.414 132.002 362.623C128.978 356.672 125.054 351.257 120.291 346.502C108.353 334.596 92.4821 328.039 75.5951 328.039C59.0014 328.039 43.3247 334.406 31.4484 345.97C29.0029 348.356 25.0786 348.307 22.6868 345.867C20.295 343.423 20.3446 339.508 22.7942 337.122C30.3496 329.766 39.202 324.182 48.8146 320.555C33.9228 311.505 23.9591 295.153 23.9591 276.525C23.9591 248.119 47.1251 225.012 75.5951 225.012C104.069 225.012 127.231 248.119 127.231 276.525C127.231 295.153 117.272 311.501 102.388 320.547C112.277 324.277 121.353 330.079 129.053 337.761C132.733 341.437 135.989 345.447 138.81 349.745C147.51 336.562 160.237 326.246 175.236 320.563C160.336 311.518 150.364 295.161 150.364 276.525C150.364 248.119 173.53 225.012 202 225.012C230.474 225.012 253.636 248.119 253.636 276.525C253.636 295.161 243.668 311.518 228.768 320.563C243.763 326.246 256.49 336.557 265.186 349.741C274.009 336.347 286.852 326.181 301.662 320.576C286.749 311.534 276.769 295.169 276.769 276.525C276.769 248.119 299.935 225.012 328.405 225.012C356.875 225.012 380.041 248.119 380.041 276.525C380.041 295.165 370.069 311.522 355.165 320.568C363.348 323.654 370.998 328.15 377.723 333.932C380.314 336.158 380.607 340.06 378.372 342.648C376.137 345.236 372.229 345.525 369.631 343.295C358.184 333.458 343.545 328.039 328.405 328.039C304.561 328.039 282.709 341.532 271.998 362.627C275.604 371.418 277.595 381.024 277.595 391.092V391.191C277.595 396.783 276.087 402.029 273.468 406.554C276.467 408.541 280.024 409.637 283.692 409.637H373.113C383.313 409.637 391.607 401.362 391.607 391.191V391.092C391.607 380.81 389.211 371.014 384.477 361.968C382.895 358.939 384.077 355.21 387.109 353.627C390.145 352.053 393.888 353.227 395.466 356.252C401.051 366.926 404 378.972 404 391.092ZM202 315.676C223.638 315.676 241.243 298.112 241.243 276.525C241.243 254.939 223.638 237.375 202 237.375C180.362 237.375 162.757 254.939 162.757 276.525C162.757 298.112 180.362 315.676 202 315.676ZM75.5951 315.676C97.2326 315.676 114.838 298.112 114.838 276.525C114.838 254.939 97.2326 237.375 75.5951 237.375C53.9575 237.375 36.3517 254.939 36.3517 276.525C36.3517 298.112 53.9575 315.676 75.5951 315.676ZM328.405 315.676C350.042 315.676 367.648 298.112 367.648 276.525C367.648 254.939 350.042 237.375 328.405 237.375C306.767 237.375 289.162 254.939 289.162 276.525C289.162 298.112 306.767 315.676 328.405 315.676ZM246.713 409.637C256.908 409.637 265.202 401.362 265.202 391.191V391.092C265.202 356.322 236.852 328.039 202 328.039C167.148 328.039 138.798 356.322 138.798 391.092V391.191C138.798 401.362 147.092 409.637 157.287 409.637H246.713ZM354.421 287.195C356.074 290.187 354.979 293.945 351.98 295.594C351.542 295.837 341.058 301.512 328.405 301.512C315.752 301.512 305.268 295.837 304.83 295.594C301.831 293.945 300.736 290.187 302.389 287.195C304.037 284.211 307.792 283.119 310.791 284.755C310.944 284.838 319.065 289.144 328.405 289.144C337.757 289.144 345.924 284.805 346.002 284.759C349.001 283.115 352.769 284.207 354.421 287.195ZM322.775 264.142C322.775 267.554 319.999 270.323 316.578 270.323C313.154 270.323 310.382 267.554 310.382 264.142C310.382 260.725 313.154 257.96 316.578 257.96C319.999 257.96 322.775 260.725 322.775 264.142ZM346.428 264.142C346.428 267.554 343.656 270.323 340.232 270.323C336.811 270.323 334.035 267.554 334.035 264.142C334.035 260.725 336.811 257.96 340.232 257.96C343.656 257.96 346.428 260.725 346.428 264.142ZM228.016 287.195C229.669 290.187 228.574 293.945 225.575 295.594C225.137 295.837 214.653 301.512 202 301.512C189.347 301.512 178.863 295.837 178.425 295.594C175.426 293.945 174.331 290.187 175.984 287.195C177.632 284.211 181.391 283.119 184.386 284.755C184.539 284.838 192.66 289.144 202 289.144C211.352 289.144 219.519 284.805 219.598 284.759C222.601 283.115 226.364 284.207 228.016 287.195ZM196.37 264.142C196.37 267.554 193.594 270.323 190.173 270.323C186.749 270.323 183.977 267.554 183.977 264.142C183.977 260.725 186.749 257.96 190.173 257.96C193.594 257.96 196.37 260.725 196.37 264.142ZM220.023 264.142C220.023 267.554 217.251 270.323 213.827 270.323C210.406 270.323 207.63 267.554 207.63 264.142C207.63 260.725 210.406 257.96 213.827 257.96C217.251 257.96 220.023 260.725 220.023 264.142ZM237.112 80.5757C237.112 77.1593 239.888 74.394 243.309 74.394H330.883C334.304 74.394 337.08 77.1593 337.08 80.5757C337.08 83.9879 334.304 86.7573 330.883 86.7573H243.309C239.888 86.7573 237.112 83.9879 237.112 80.5757ZM237.112 105.302C237.112 101.886 239.888 99.1206 243.309 99.1206H330.883C334.304 99.1206 337.08 101.886 337.08 105.302C337.08 108.715 334.304 111.484 330.883 111.484H243.309C239.888 111.484 237.112 108.715 237.112 105.302ZM237.112 130.029C237.112 126.612 239.888 123.847 243.309 123.847H330.883C334.304 123.847 337.08 126.612 337.08 130.029C337.08 133.441 334.304 136.21 330.883 136.21H243.309C239.888 136.21 237.112 133.441 237.112 130.029Z" fill="#05162D"/>
<path fill-rule="evenodd" clip-rule="evenodd" d="M18.5889 129.332V42.3154C18.5889 18.9818 37.6281 0 61.0337 0H69.8118C73.2321 0 76.0081 2.76525 76.0081 6.18164C76.0081 9.59803 73.2321 12.3633 69.8118 12.3633H61.0337C44.4606 12.3633 30.9815 25.798 30.9815 42.3154V129.332C30.9815 145.85 44.4606 159.284 61.0337 159.284H96.3816C99.6615 159.284 102.371 161.835 102.57 165.099C103.478 180.421 107.775 191.095 115.338 196.819C118.754 199.403 122.613 200.792 126.413 201.447C126.165 201.093 125.926 200.73 125.698 200.359C117.222 186.665 122.968 166.022 123.654 163.715C124.43 161.085 126.847 159.284 129.594 159.284H172.774C189.347 159.284 202.826 145.85 202.826 129.332V42.3154C202.826 25.798 189.347 12.3633 172.774 12.3633H96.2494C92.829 12.3633 90.0531 9.59803 90.0531 6.18164C90.0531 2.76525 92.829 0 96.2494 0H172.774C190.859 0 206.329 11.3413 212.435 27.261C218.243 24.4092 224.691 22.8803 231.23 22.8803H342.962C366.368 22.8803 385.411 41.8621 385.411 65.1957V152.208C385.411 175.538 366.368 194.524 342.962 194.524H313.29C311.373 210.613 305.627 222.378 296.159 229.545C288.306 235.483 279.305 237.173 271.622 237.173C266.842 237.173 262.571 236.518 259.403 235.834C256.019 235.088 253.714 232.17 253.78 228.737C253.851 225.358 256.313 222.469 259.65 221.867C263.426 221.196 266 219.572 267.747 216.757C271.44 210.815 270.676 200.907 269.49 194.524H231.23C213.459 194.524 197.741 183.282 191.565 167.259C185.898 170.061 179.52 171.648 172.77 171.648H134.51C133.324 178.023 132.56 187.93 136.253 193.877C138 196.696 140.574 198.319 144.341 198.991C147.687 199.589 150.161 202.486 150.219 205.869C150.281 209.257 147.918 212.232 144.597 212.949C141.433 213.637 137.153 214.289 132.374 214.289C124.695 214.289 115.698 212.607 107.849 206.669C98.3768 199.506 92.6266 187.736 90.7099 171.648H61.0337C37.6281 171.648 18.5889 152.666 18.5889 129.332ZM202.161 159.82C205.581 172.756 217.544 182.161 231.23 182.161H274.406C277.153 182.161 279.57 183.966 280.346 186.591C281.032 188.903 286.778 209.541 278.297 223.24C278.07 223.611 277.83 223.973 277.583 224.328C281.387 223.676 285.245 222.284 288.666 219.695C296.229 213.975 300.521 203.302 301.43 187.975C301.628 184.712 304.338 182.161 307.618 182.161H342.962C359.535 182.161 373.018 168.722 373.018 152.208V65.1957C373.018 48.6784 359.535 35.2436 342.962 35.2436H231.23C225.434 35.2436 219.936 36.8467 215.144 39.8922C215.19 40.6917 215.219 41.4994 215.219 42.3154V129.332C215.219 141.304 210.2 152.118 202.161 159.82Z" fill="#05162D"/>
<path fill-rule="evenodd" clip-rule="evenodd" d="M91.2926 38.3262C103.574 38.3262 112.195 44.1039 116.904 48.4022C121.617 44.1039 130.234 38.3262 142.516 38.3262C160.353 38.3262 174.323 53.8586 174.323 73.6852C174.323 86.6666 167.561 112.011 122.287 135.901C120.601 136.791 118.755 137.237 116.904 137.237C115.053 137.237 113.207 136.791 111.522 135.901C66.2471 112.011 59.4849 86.6666 59.4849 73.6852C59.4849 53.8586 73.4555 38.3262 91.2926 38.3262ZM71.8775 73.6852C71.8775 90.9608 88.2812 109.559 116.904 124.758C145.527 109.559 161.931 90.9608 161.931 73.6852C161.931 62.5376 155.127 50.6895 142.516 50.6895C133.775 50.6895 127.756 54.9383 124.249 58.503C122.336 60.4482 119.655 61.5609 116.904 61.5609C114.153 61.5609 111.472 60.4482 109.559 58.4989C106.052 54.9383 100.034 50.6895 91.2926 50.6895C78.6811 50.6895 71.8775 62.5376 71.8775 73.6852Z" fill="#05162D"/>
</svg>
