<svg width="50" height="50" viewBox="0 0 50 50" fill="none" xmlns="http://www.w3.org/2000/svg">
<path fill-rule="evenodd" clip-rule="evenodd" d="M16.4009 22.9871C16.4012 22.8631 16.3771 22.7402 16.3299 22.6256C16.2827 22.5109 16.2135 22.4068 16.126 22.319C16.0385 22.2311 15.9345 22.1614 15.8201 22.1139C15.7056 22.0664 15.5829 22.0419 15.459 22.0419H12.1678C11.9178 22.0426 11.6781 22.1426 11.5016 22.3198C11.325 22.4969 11.226 22.7369 11.226 22.9871V26.2886C11.226 26.5388 11.325 26.7789 11.5016 26.9561C11.6781 27.1333 11.9178 27.2331 12.1678 27.2338H15.459C15.5829 27.2338 15.7056 27.2093 15.8201 27.1618C15.9345 27.1143 16.0385 27.0447 16.126 26.9569C16.2135 26.8691 16.2827 26.7648 16.3299 26.6501C16.3771 26.5355 16.4012 26.4126 16.4009 26.2886V22.9871ZM24.6224 22.9871C24.6224 22.7369 24.5232 22.4969 24.3467 22.3198C24.1701 22.1426 23.9305 22.0426 23.6804 22.0419H20.3893C20.1392 22.0426 19.8996 22.1426 19.723 22.3198C19.5465 22.4969 19.4475 22.7369 19.4475 22.9871V26.2886C19.4475 26.5388 19.5465 26.7789 19.723 26.9561C19.8996 27.1333 20.1392 27.2331 20.3893 27.2338H23.6779C23.9279 27.2331 24.1675 27.1333 24.3441 26.9561C24.5206 26.7789 24.6196 26.5388 24.6196 26.2886V22.9871H24.6224ZM32.8439 22.9871C32.8439 22.7364 32.7443 22.496 32.5672 22.3188C32.3901 22.1415 32.1498 22.0419 31.8993 22.0419H28.6108C28.4868 22.0419 28.3642 22.0664 28.2498 22.1139C28.1353 22.1614 28.0314 22.2311 27.9439 22.319C27.8564 22.4068 27.787 22.5109 27.7398 22.6256C27.6926 22.7402 27.6686 22.8631 27.669 22.9871V26.2886C27.6686 26.4126 27.6926 26.5355 27.7398 26.6501C27.787 26.7648 27.8564 26.8691 27.9439 26.9569C28.0314 27.0447 28.1353 27.1143 28.2498 27.1618C28.3642 27.2093 28.4868 27.2338 28.6108 27.2338H31.8993C32.0234 27.2338 32.1462 27.2094 32.2608 27.1619C32.3754 27.1144 32.4795 27.0447 32.5672 26.9569C32.6549 26.8691 32.7244 26.765 32.7719 26.6503C32.8194 26.5356 32.8439 26.4127 32.8439 26.2886V22.9871ZM16.4009 31.2383C16.4012 31.1143 16.3771 30.9915 16.3299 30.8769C16.2827 30.7622 16.2135 30.6579 16.126 30.5701C16.0385 30.4823 15.9345 30.4128 15.8201 30.3652C15.7056 30.3177 15.5829 30.2931 15.459 30.2931H12.1678C12.0439 30.2931 11.9213 30.3177 11.8068 30.3652C11.6924 30.4128 11.5884 30.4823 11.5009 30.5701C11.4134 30.6579 11.344 30.7622 11.2968 30.8769C11.2497 30.9915 11.2257 31.1143 11.226 31.2383V34.5399C11.226 34.7901 11.325 35.0301 11.5016 35.2073C11.6781 35.3844 11.9178 35.4844 12.1678 35.4851H15.459C15.5829 35.4851 15.7056 35.4606 15.8201 35.4131C15.9345 35.3656 16.0385 35.2959 16.126 35.2081C16.2135 35.1203 16.2827 35.016 16.3299 34.9013C16.3771 34.7866 16.4012 34.6639 16.4009 34.5399V31.2383ZM24.6224 31.2383C24.6227 31.1143 24.5986 30.9915 24.5514 30.8769C24.5042 30.7622 24.435 30.6579 24.3475 30.5701C24.26 30.4823 24.156 30.4128 24.0416 30.3652C23.9271 30.3177 23.8043 30.2931 23.6804 30.2931H20.3893C20.2654 30.2931 20.1427 30.3177 20.0283 30.3652C19.9139 30.4128 19.8099 30.4823 19.7224 30.5701C19.6349 30.6579 19.5655 30.7622 19.5183 30.8769C19.4711 30.9915 19.4471 31.1143 19.4475 31.2383V34.5399C19.4475 34.7901 19.5465 35.0301 19.723 35.2073C19.8996 35.3844 20.1392 35.4844 20.3893 35.4851H23.6779C23.9279 35.4844 24.1675 35.3844 24.3441 35.2073C24.5206 35.0301 24.6196 34.7901 24.6196 34.5399V31.2383H24.6224ZM27.6979 42.8701H5.19334C3.90624 42.5669 2.73302 41.9008 1.81258 40.9508C0.892144 40.0007 0.263072 38.8065 0 37.5097V8.92527C0 6.898 3.35958 4.69176 5.34589 4.6312V9.67298C5.3452 10.2137 5.45103 10.7492 5.65741 11.2489C5.86378 11.7486 6.16666 12.2028 6.5486 12.5852C6.93054 12.9677 7.38408 13.271 7.88331 13.4779C8.38253 13.6847 8.91759 13.7911 9.45791 13.7908H12.052C13.1457 13.7922 14.1952 13.3594 14.9705 12.5875C15.7458 11.8156 16.1836 10.7674 16.1878 9.67298V4.61272H27.8872V9.67298C27.8914 10.7674 28.3292 11.8156 29.1045 12.5875C29.8798 13.3594 30.9293 13.7922 32.023 13.7908H34.6171C35.1574 13.7911 35.6925 13.6847 36.1917 13.4779C36.6909 13.271 37.1445 12.9677 37.5264 12.5852C37.9083 12.2028 38.2112 11.7486 38.4176 11.2489C38.624 10.7492 38.7298 10.2137 38.7291 9.67298V4.6312C39.8511 4.75511 40.9024 5.24104 41.724 6.01574C42.5456 6.79044 43.0929 7.81176 43.2832 8.92527V26.7888H37.5242V20.8124C37.5249 20.3849 37.356 19.9744 37.0546 19.6714C36.7532 19.3683 36.3439 19.1973 35.9166 19.1959H8.08724C7.87558 19.1962 7.66617 19.2383 7.47079 19.3198C7.2754 19.4012 7.0979 19.5204 6.9486 19.6706C6.79929 19.8207 6.68107 19.9988 6.60063 20.1947C6.52019 20.3907 6.47918 20.6006 6.47988 20.8124V36.0827C6.47918 36.2944 6.52016 36.5042 6.60063 36.6999C6.6811 36.8957 6.79942 37.0737 6.94876 37.2236C7.09809 37.3736 7.27558 37.4925 7.47095 37.5736C7.66632 37.6548 7.8757 37.6966 8.08724 37.6966L27.6979 37.5176V42.8701ZM9.44748 11.0946H12.0125C12.3872 11.0946 12.7467 10.9457 13.0116 10.6805C13.2766 10.4154 13.4254 10.0558 13.4254 9.68085V1.41379C13.4258 1.22803 13.3894 1.0441 13.3185 0.87241C13.2476 0.700721 13.1435 0.544662 13.0123 0.413307C12.881 0.281953 12.7252 0.177792 12.5537 0.106864C12.3821 0.0359358 12.1981 -0.000344433 12.0125 2.46432e-06H9.44748C9.26207 2.14141e-06 9.0784 0.0365841 8.90714 0.107667C8.73588 0.178751 8.58032 0.282952 8.44934 0.414272C8.31836 0.545591 8.21463 0.701536 8.14392 0.873053C8.07321 1.04457 8.03695 1.22825 8.0373 1.41379V9.68085C8.03938 10.054 8.18888 10.4112 8.45303 10.6746C8.71718 10.9379 9.0746 11.0861 9.44748 11.0868V11.0946ZM31.9862 11.0946H34.5513C34.9255 11.0939 35.2842 10.9448 35.5486 10.6797C35.813 10.4147 35.9614 10.0554 35.9614 9.68085V1.41379C35.9618 1.22825 35.9255 1.04457 35.8548 0.873053C35.7841 0.701536 35.6804 0.545591 35.5494 0.414272C35.4184 0.282952 35.2628 0.178751 35.0916 0.107667C34.9203 0.0365841 34.7367 2.14141e-06 34.5513 2.46432e-06H31.9862C31.8008 2.14141e-06 31.6171 0.0365841 31.4459 0.107667C31.2746 0.178751 31.1191 0.282952 30.9881 0.414272C30.8571 0.545591 30.7534 0.701536 30.6827 0.873053C30.6119 1.04457 30.5757 1.22825 30.576 1.41379V9.68085C30.5781 10.054 30.7275 10.4112 30.9916 10.6746C31.2558 10.9379 31.6133 11.0861 31.9862 11.0868V11.0946ZM43.0595 36.6093C42.8824 36.7958 42.7837 37.043 42.7837 37.3003C42.7837 37.5575 42.8824 37.805 43.0595 37.9914C43.1461 38.0836 43.2509 38.1565 43.3673 38.2055C43.4838 38.2545 43.6094 38.2785 43.7357 38.2759H49.0474C49.1737 38.2785 49.2991 38.2545 49.4156 38.2055C49.5321 38.1565 49.637 38.0836 49.7236 37.9914C49.8138 37.9005 49.8847 37.7924 49.9322 37.6734C49.9796 37.5545 50.0026 37.4271 49.9998 37.299V31.8491C50.0023 31.721 49.9791 31.5939 49.9317 31.475C49.8842 31.356 49.8135 31.2477 49.7236 31.1566C49.6356 31.0668 49.5305 30.9954 49.4146 30.9466C49.2988 30.8979 49.1744 30.8729 49.0487 30.8729C48.923 30.8729 48.7986 30.8979 48.6827 30.9466C48.5668 30.9954 48.4619 31.0668 48.3739 31.1566L46.9479 32.6206C46.0615 31.7339 45.0106 31.0291 43.8541 30.5458C42.5583 30.0099 41.1613 29.7632 39.7605 29.8227C38.3597 29.8823 36.9887 30.2468 35.743 30.8909C34.3956 31.6046 33.2266 32.6134 32.3229 33.8422C31.4007 35.0811 30.7768 36.5165 30.4998 38.0363C30.4867 38.1042 30.4889 38.1741 30.5062 38.241C30.5235 38.3079 30.5553 38.3702 30.5996 38.4232C30.6428 38.4819 30.6998 38.5291 30.7654 38.5608C30.8309 38.5924 30.9031 38.6076 30.9759 38.605H33.2358C33.3509 38.6106 33.4641 38.5741 33.5542 38.5023C33.6341 38.4341 33.6896 38.3415 33.7121 38.2389C34.055 36.7637 34.8901 35.4497 36.0798 34.5135C37.2375 33.5677 38.6895 33.0573 40.1839 33.0708C41.0191 33.069 41.847 33.2272 42.6228 33.5368C43.4086 33.8548 44.1279 34.3172 44.7433 34.9005L43.0595 36.6093ZM30.6075 41.8196C30.5175 41.9102 30.4467 42.0179 30.3992 42.1364C30.3518 42.2549 30.3287 42.3817 30.3313 42.5093V47.9646C30.3288 48.0926 30.352 48.2199 30.3994 48.3388C30.4469 48.4578 30.5176 48.5659 30.6075 48.657C30.6955 48.7469 30.8006 48.8183 30.9165 48.867C31.0323 48.9158 31.1567 48.9408 31.2824 48.9408C31.4081 48.9408 31.5325 48.9158 31.6484 48.867C31.7642 48.8183 31.8692 48.7469 31.9572 48.657L33.3832 47.1905C34.2695 48.078 35.3204 48.7836 36.477 49.2678C37.6437 49.7554 38.8961 50.0043 40.1603 49.9998C41.7009 50.0105 43.2201 49.6396 44.5827 48.9202C45.9417 48.2044 47.1211 47.1899 48.0324 45.9529C48.9437 44.7158 49.5632 43.2883 49.8445 41.7774C49.8568 41.7095 49.8544 41.6398 49.8371 41.573C49.8198 41.5062 49.7883 41.4439 49.7446 41.3904C49.7014 41.3318 49.6445 41.2845 49.5789 41.2529C49.5133 41.2212 49.4411 41.2062 49.3684 41.2089H47.1084C46.9938 41.2034 46.8809 41.2388 46.79 41.3088C46.7111 41.3778 46.6559 41.47 46.6322 41.5722C46.2889 43.0465 45.4538 44.3595 44.2645 45.2948C43.1076 46.2424 41.6552 46.7539 40.1603 46.7403C39.3251 46.7425 38.4972 46.5843 37.7215 46.2742C36.9354 45.9569 36.2159 45.4942 35.6009 44.9104L37.2663 43.1992C37.4434 43.0128 37.5421 42.7653 37.5421 42.5081C37.5421 42.2508 37.4434 42.0034 37.2663 41.8169C37.1795 41.725 37.0746 41.6521 36.9583 41.6027C36.8419 41.5533 36.7166 41.5285 36.5902 41.5299H31.2784C31.1532 41.5282 31.0292 41.5523 30.9137 41.6008C30.7983 41.6493 30.694 41.721 30.6075 41.8116V41.8196Z" fill="#698B05"/>
</svg>
