<svg width="50" height="50" viewBox="0 0 50 50" fill="none" xmlns="http://www.w3.org/2000/svg">
<path d="M49.8409 22.1204C49.7347 21.8662 49.5826 21.635 49.3889 21.4412L43.1409 15.1933C42.3264 14.3808 41.0097 14.3808 40.1951 15.1933C39.3806 16.0078 39.3806 17.3266 40.1951 18.1391L42.8889 20.8328H31.2513C30.0992 20.8328 29.168 21.7661 29.168 22.9161C29.168 24.0661 30.0992 24.9994 31.2513 24.9994H42.8888L40.195 27.6932C39.3805 28.5077 39.3805 29.8265 40.195 30.639C40.6013 31.0473 41.1346 31.2494 41.668 31.2494C42.2014 31.2494 42.7347 31.0474 43.1409 30.639L49.3889 24.3911C49.5826 24.1994 49.7347 23.9681 49.8409 23.7119C50.0513 23.2037 50.0513 22.6287 49.8409 22.1204Z" fill="#8B0517"/>
<path d="M35.4183 29.1667C34.2663 29.1667 33.335 30.1 33.335 31.25V41.6667H25.0017V8.3333C25.0017 7.41455 24.3975 6.60205 23.5163 6.3375L16.2808 4.1667H33.335V14.5834C33.335 15.7334 34.2663 16.6667 35.4183 16.6667C36.5704 16.6667 37.5016 15.7334 37.5016 14.5834V2.0834C37.5016 0.933301 36.5704 0 35.4183 0H2.08501C2.01001 0 1.94331 0.03125 1.87046 0.0395508C1.77251 0.05 1.68296 0.0666016 1.58921 0.0895508C1.37046 0.145801 1.17251 0.23125 0.987158 0.347852C0.941357 0.377051 0.885108 0.379102 0.841358 0.412402C0.824561 0.425 0.818311 0.447949 0.801611 0.460449C0.574561 0.639551 0.38501 0.858301 0.24751 1.11875C0.218311 1.175 0.212061 1.23545 0.189209 1.29375C0.12251 1.45205 0.0496582 1.60625 0.0246582 1.78125C0.014209 1.84375 0.032959 1.90205 0.0309082 1.9625C0.0288574 2.0042 0.00170898 2.0417 0.00170898 2.0833V43.75C0.00170898 44.7437 0.70376 45.598 1.67671 45.7917L22.51 49.9584C22.6455 49.9876 22.783 50.0001 22.9183 50.0001C23.3954 50.0001 23.8641 49.8355 24.2391 49.5271C24.7204 49.1313 25.0016 48.5417 25.0016 47.9167V45.8334H35.4183C36.5704 45.8334 37.5016 44.9001 37.5016 43.7501V31.25C37.5016 30.1 36.5704 29.1667 35.4183 29.1667Z" fill="#8B0517"/>
</svg>
