<svg width="22" height="18" viewBox="0 0 22 18" fill="none" xmlns="http://www.w3.org/2000/svg">
<path d="M20.4477 5.13965H19.8506V11.6727C19.8506 12.6932 19.2471 13.6099 18.0465 13.6099H6.26037V13.9216C6.26037 14.82 7.29755 15.7306 8.35987 15.7306H17.3739L20.8186 17.729L20.3157 15.7306H20.4477C21.5163 15.7306 21.9941 14.82 21.9941 13.9216V6.69193C21.9941 5.79356 21.5163 5.13965 20.4477 5.13965ZM16.2864 0.605042H2.59567C1.38877 0.605042 0.00585938 1.65619 0.00585938 2.67678V10.866C0.00585938 11.801 1.18133 12.4794 2.30651 12.5832L1.57106 15.3272L6.27294 12.6016H16.2864C17.4871 12.6016 18.5997 11.8804 18.5997 10.866V4.24128V2.67678C18.5997 1.65619 17.4871 0.605042 16.2864 0.605042ZM4.6826 7.51695C4.00372 7.51695 3.44427 6.96693 3.44427 6.29469C3.44427 5.62244 4.00372 5.07242 4.6826 5.07242C5.36776 5.07242 5.92093 5.62244 5.92093 6.29469C5.92093 6.96693 5.36776 7.51695 4.6826 7.51695ZM9.30276 7.51695C8.6176 7.51695 8.06443 6.96693 8.06443 6.29469C8.06443 5.62244 8.6176 5.07242 9.30276 5.07242C9.98793 5.07242 10.5411 5.62244 10.5411 6.29469C10.5411 6.96693 9.98793 7.51695 9.30276 7.51695ZM13.9229 7.51695C13.2378 7.51695 12.6846 6.96693 12.6846 6.29469C12.6846 5.62244 13.2378 5.07242 13.9229 5.07242C14.6018 5.07242 15.1613 5.62244 15.1613 6.29469C15.1613 6.96693 14.6018 7.51695 13.9229 7.51695Z" fill="#05172D"/>
</svg>
