<svg width="20" height="20" viewBox="0 0 20 20" fill="none" xmlns="http://www.w3.org/2000/svg">
<g clip-path="url(#clip0)">
<path fill-rule="evenodd" clip-rule="evenodd" d="M6.56211 9.19396C6.56225 9.14439 6.55259 9.09525 6.53372 9.04941C6.51484 9.00357 6.48713 8.96193 6.45212 8.92682C6.41712 8.89172 6.37552 8.86385 6.32973 8.84484C6.28394 8.82584 6.23481 8.81606 6.18524 8.81606H4.86842C4.76838 8.81634 4.6725 8.85631 4.60186 8.92715C4.53122 8.99798 4.49161 9.09392 4.49161 9.19396V10.5139C4.49161 10.614 4.53122 10.71 4.60186 10.7808C4.6725 10.8517 4.76838 10.8916 4.86842 10.8918H6.18524C6.23481 10.8918 6.28394 10.8821 6.32973 10.8631C6.37552 10.844 6.41712 10.8162 6.45212 10.7811C6.48713 10.746 6.51484 10.7043 6.53372 10.6585C6.55259 10.6126 6.56225 10.5635 6.56211 10.5139V9.19396ZM9.85159 9.19396C9.85159 9.09392 9.81192 8.99798 9.74127 8.92715C9.67063 8.85631 9.57475 8.81634 9.47471 8.81606H8.15789C8.05785 8.81634 7.96197 8.85631 7.89133 8.92715C7.82069 8.99798 7.78108 9.09392 7.78108 9.19396V10.5139C7.78108 10.614 7.82069 10.71 7.89133 10.7808C7.96197 10.8517 8.05785 10.8916 8.15789 10.8918H9.47368C9.57372 10.8916 9.66961 10.8517 9.74025 10.7808C9.81089 10.71 9.8505 10.614 9.8505 10.5139L9.85159 9.19396ZM13.1411 9.19396C13.1411 9.09374 13.1012 8.99763 13.0304 8.92676C12.9595 8.85589 12.8634 8.81606 12.7632 8.81606H11.4474C11.3978 8.81606 11.3487 8.82584 11.3029 8.84484C11.2571 8.86385 11.2156 8.89172 11.1805 8.92682C11.1455 8.96193 11.1178 9.00357 11.0989 9.04941C11.08 9.09525 11.0704 9.14439 11.0706 9.19396V10.5139C11.0704 10.5635 11.08 10.6126 11.0989 10.6585C11.1178 10.7043 11.1455 10.746 11.1805 10.7811C11.2156 10.8162 11.2571 10.844 11.3029 10.8631C11.3487 10.8821 11.3978 10.8918 11.4474 10.8918H12.7632C12.8128 10.8918 12.8619 10.8821 12.9078 10.8631C12.9536 10.8441 12.9953 10.8162 13.0304 10.7811C13.0655 10.746 13.0933 10.7044 13.1123 10.6586C13.1313 10.6127 13.1411 10.5636 13.1411 10.5139V9.19396ZM6.56211 12.4929C6.56225 12.4433 6.55259 12.3942 6.53372 12.3484C6.51484 12.3025 6.48713 12.2608 6.45212 12.2257C6.41712 12.1906 6.37552 12.1628 6.32973 12.1438C6.28394 12.1248 6.23481 12.115 6.18524 12.115H4.86842C4.81884 12.115 4.76978 12.1248 4.72399 12.1438C4.6782 12.1628 4.63661 12.1906 4.6016 12.2257C4.56659 12.2608 4.53882 12.3025 4.51994 12.3484C4.50107 12.3942 4.49147 12.4433 4.49161 12.4929V13.8129C4.49161 13.913 4.53122 14.0089 4.60186 14.0797C4.6725 14.1506 4.76838 14.1905 4.86842 14.1908H6.18524C6.23481 14.1908 6.28394 14.181 6.32973 14.162C6.37552 14.143 6.41712 14.1152 6.45212 14.0801C6.48713 14.0449 6.51484 14.0032 6.53372 13.9574C6.55259 13.9116 6.56225 13.8625 6.56211 13.8129V12.4929ZM9.85159 12.4929C9.85173 12.4433 9.84207 12.3942 9.82319 12.3484C9.80431 12.3025 9.7766 12.2608 9.7416 12.2257C9.70659 12.1906 9.66499 12.1628 9.6192 12.1438C9.57341 12.1248 9.52429 12.115 9.47471 12.115H8.15789C8.10832 12.115 8.05926 12.1248 8.01347 12.1438C7.96768 12.1628 7.92608 12.1906 7.89107 12.2257C7.85607 12.2608 7.82829 12.3025 7.80942 12.3484C7.79054 12.3942 7.78094 12.4433 7.78108 12.4929V13.8129C7.78108 13.913 7.82069 14.0089 7.89133 14.0797C7.96197 14.1506 8.05785 14.1905 8.15789 14.1908H9.47368C9.57372 14.1905 9.66961 14.1506 9.74025 14.0797C9.81089 14.0089 9.8505 13.913 9.8505 13.8129L9.85159 12.4929ZM11.0821 17.1434H2.07789C1.56291 17.0222 1.0935 16.7559 0.725226 16.3761C0.356953 15.9962 0.105257 15.5188 0 15.0003V3.57186C0 2.76133 1.34419 1.87924 2.13893 1.85503V3.8708C2.13865 4.08699 2.181 4.30108 2.26357 4.50088C2.34614 4.70067 2.46732 4.88224 2.62014 5.03516C2.77296 5.18807 2.95442 5.30935 3.15417 5.39205C3.35391 5.47475 3.56799 5.51728 3.78418 5.51714H4.8221C5.25968 5.5177 5.67959 5.34468 5.9898 5.03606C6.3 4.72743 6.47519 4.30837 6.47686 3.8708V1.84764H11.1579V3.8708C11.1595 4.30837 11.3347 4.72743 11.6449 5.03606C11.9551 5.34468 12.375 5.5177 12.8126 5.51714H13.8505C14.0667 5.51728 14.2808 5.47475 14.4806 5.39205C14.6803 5.30935 14.8618 5.18807 15.0146 5.03516C15.1674 4.88224 15.2886 4.70067 15.3712 4.50088C15.4537 4.30108 15.4961 4.08699 15.4958 3.8708V1.85503C15.9447 1.90457 16.3654 2.09885 16.6941 2.40859C17.0228 2.71832 17.2418 3.12666 17.3179 3.57186V10.7139H15.0137V8.3245C15.014 8.15355 14.9464 7.98946 14.8258 7.86828C14.7052 7.7471 14.5415 7.67873 14.3705 7.67817H3.23576C3.15107 7.67831 3.06729 7.69514 2.98912 7.72771C2.91094 7.76028 2.83992 7.80793 2.78018 7.86796C2.72045 7.92799 2.67314 7.9992 2.64096 8.07754C2.60877 8.15587 2.59237 8.23982 2.59264 8.3245V14.4298C2.59237 14.5144 2.60876 14.5983 2.64096 14.6765C2.67316 14.7548 2.7205 14.826 2.78025 14.8859C2.84 14.9459 2.91101 14.9934 2.98918 15.0258C3.06735 15.0583 3.15112 15.075 3.23576 15.075L11.0821 15.0034V17.1434ZM3.78 4.4392H4.80629C4.95621 4.4392 5.10003 4.37964 5.20604 4.27363C5.31205 4.16762 5.37161 4.02386 5.37161 3.87395V0.568669C5.37175 0.494398 5.35718 0.420862 5.32882 0.352219C5.30046 0.283575 5.25882 0.221181 5.2063 0.168664C5.15378 0.116146 5.09145 0.0745016 5.02281 0.0461436C4.95416 0.0177856 4.88056 0.00328026 4.80629 0.00341895H3.78C3.70582 0.00341882 3.63233 0.0180448 3.56381 0.0464648C3.49529 0.0748848 3.43305 0.116546 3.38064 0.169049C3.32824 0.221552 3.28673 0.283901 3.25844 0.352476C3.23015 0.421051 3.21564 0.494487 3.21578 0.568669V3.87395C3.21661 4.02313 3.27643 4.16596 3.38212 4.27125C3.48781 4.37655 3.63081 4.43577 3.78 4.43605V4.4392ZM12.7979 4.4392H13.8242C13.9739 4.43892 14.1175 4.37929 14.2232 4.27331C14.329 4.16733 14.3884 4.02368 14.3884 3.87395V0.568669C14.3886 0.494487 14.3741 0.421051 14.3458 0.352476C14.3175 0.283901 14.276 0.221552 14.2236 0.169049C14.1712 0.116546 14.1089 0.0748848 14.0404 0.0464648C13.9719 0.0180448 13.8984 0.00341882 13.8242 0.00341895H12.7979C12.7237 0.00341882 12.6502 0.0180448 12.5817 0.0464648C12.5132 0.0748848 12.451 0.116546 12.3986 0.169049C12.3461 0.221552 12.3046 0.283901 12.2764 0.352476C12.2481 0.421051 12.2336 0.494487 12.2337 0.568669V3.87395C12.2345 4.02313 12.2943 4.16596 12.4 4.27125C12.5057 4.37655 12.6487 4.43577 12.7979 4.43605V4.4392ZM17.2284 14.6403C17.1576 14.7148 17.118 14.8137 17.118 14.9166C17.118 15.0194 17.1576 15.1183 17.2284 15.1929C17.263 15.2297 17.305 15.2589 17.3516 15.2785C17.3982 15.298 17.4484 15.3076 17.499 15.3066H19.6242C19.6748 15.3076 19.7249 15.298 19.7715 15.2785C19.8181 15.2589 19.8601 15.2297 19.8948 15.1929C19.9308 15.1565 19.9592 15.1133 19.9782 15.0657C19.9972 15.0182 20.0064 14.9672 20.0053 14.916V12.7371C20.0063 12.6859 19.997 12.6351 19.978 12.5875C19.959 12.54 19.9307 12.4967 19.8948 12.4602C19.8596 12.4243 19.8175 12.3958 19.7711 12.3763C19.7248 12.3568 19.675 12.3468 19.6247 12.3468C19.5744 12.3468 19.5247 12.3568 19.4783 12.3763C19.4319 12.3958 19.3899 12.4243 19.3548 12.4602L18.7842 13.0455C18.4295 12.691 18.0091 12.4092 17.5463 12.216C17.0279 12.0018 16.4689 11.9031 15.9085 11.9269C15.348 11.9507 14.7994 12.0965 14.3011 12.354C13.7619 12.6393 13.2942 13.0427 12.9326 13.534C12.5637 14.0293 12.314 14.6032 12.2032 15.2108C12.1979 15.238 12.1988 15.2659 12.2057 15.2927C12.2127 15.3194 12.2254 15.3443 12.2431 15.3655C12.2604 15.389 12.2832 15.4079 12.3094 15.4205C12.3357 15.4332 12.3646 15.4392 12.3937 15.4382H13.2979C13.3439 15.4404 13.3892 15.4258 13.4253 15.3971C13.4573 15.3699 13.4794 15.3329 13.4884 15.2918C13.6256 14.702 13.9598 14.1767 14.4358 13.8024C14.899 13.4242 15.4799 13.2202 16.0779 13.2256C16.4121 13.2248 16.7433 13.2881 17.0537 13.4119C17.3681 13.539 17.6559 13.7239 17.9021 13.9571L17.2284 14.6403ZM12.2463 16.7235C12.2103 16.7596 12.1819 16.8027 12.163 16.8501C12.144 16.8975 12.1347 16.9482 12.1358 16.9992V19.1803C12.1348 19.2315 12.144 19.2824 12.163 19.3299C12.182 19.3775 12.2103 19.4207 12.2463 19.4571C12.2815 19.4931 12.3235 19.5216 12.3699 19.5411C12.4163 19.5606 12.466 19.5706 12.5163 19.5706C12.5666 19.5706 12.6164 19.5606 12.6627 19.5411C12.7091 19.5216 12.7511 19.4931 12.7863 19.4571L13.3569 18.8708C13.7115 19.2256 14.1319 19.5077 14.5947 19.7013C15.0615 19.8963 15.5626 19.9958 16.0684 19.994C16.6848 19.9983 17.2927 19.85 17.8379 19.5624C18.3816 19.2762 18.8535 18.8706 19.2181 18.376C19.5827 17.8814 19.8306 17.3106 19.9431 16.7066C19.9481 16.6794 19.9471 16.6516 19.9402 16.6248C19.9333 16.5981 19.9207 16.5732 19.9032 16.5519C19.8859 16.5284 19.8631 16.5095 19.8369 16.4969C19.8106 16.4842 19.7818 16.4782 19.7526 16.4793H18.8484C18.8026 16.4771 18.7574 16.4912 18.721 16.5192C18.6895 16.5468 18.6674 16.5837 18.6579 16.6245C18.5205 17.214 18.1864 17.7389 17.7105 18.1129C17.2477 18.4917 16.6666 18.6962 16.0684 18.6908C15.7342 18.6917 15.403 18.6284 15.0926 18.5045C14.7781 18.3776 14.4903 18.1926 14.2442 17.9592L14.9105 17.275C14.9814 17.2005 15.0209 17.1015 15.0209 16.9987C15.0209 16.8958 14.9814 16.7969 14.9105 16.7224C14.8758 16.6856 14.8338 16.6565 14.7873 16.6367C14.7407 16.617 14.6906 16.607 14.64 16.6076H12.5147C12.4646 16.6069 12.415 16.6166 12.3688 16.636C12.3226 16.6553 12.2809 16.684 12.2463 16.7202V16.7235Z" fill="#05172D"/>
</g>
<defs>
<clipPath id="clip0">
<rect width="20" height="20" fill="white"/>
</clipPath>
</defs>
</svg>
