<svg width="20" height="20" viewBox="0 0 20 20" fill="none" xmlns="http://www.w3.org/2000/svg">
<path fill-rule="evenodd" clip-rule="evenodd" d="M10 0C4.48 0 0 4.48 0 10C0 15.52 4.48 20 10 20C15.52 20 20 15.52 20 10C20 4.48 15.52 0 10 0ZM10.0006 18.0001C5.58056 18.0001 2.00056 14.4201 2.00056 10.0001C2.00056 8.1501 2.63056 6.4501 3.69056 5.1001L14.9006 16.3101C13.5506 17.3701 11.8506 18.0001 10.0006 18.0001ZM5.10045 3.68995L16.3104 14.8999C17.3704 13.5499 18.0004 11.8499 18.0004 9.99995C18.0004 5.57995 14.4204 1.99995 10.0004 1.99995C8.15045 1.99995 6.45045 2.62995 5.10045 3.68995Z" fill="#05172D"/>
</svg>
