<svg width="33" height="32" viewBox="0 0 33 32" fill="none" xmlns="http://www.w3.org/2000/svg">
<path d="M17.58 5.0239C19.2 5.0239 21.18 4.4839 23.52 3.4039C24.03 3.1639 24.54 3.194 25.04 3.504C25.55 3.804 25.8 4.264 25.8 4.874V17.214C25.8 17.794 25.57 18.2339 25.09 18.5339C23.1 19.9239 21.03 20.614 18.9 20.614C18.09 20.614 17.24 20.5139 16.36 20.3139C15.85 20.2139 15.12 19.9939 14.18 19.6539C13.36 19.3839 12.75 19.194 12.35 19.094C11.67 18.924 11.04 18.844 10.47 18.844C8.36996 18.844 6.43996 19.224 4.67996 20.004V24.7839C4.67996 25.1239 4.55996 25.4039 4.31996 25.6439C4.08996 25.8839 3.79996 26.004 3.45996 26.004H2.64996C2.30996 26.004 2.01996 25.8839 1.77996 25.6439C1.54996 25.4039 1.42996 25.1239 1.42996 24.7839V5.18393C1.05996 4.90393 0.759959 4.57391 0.539959 4.16391C0.319959 3.75391 0.209961 3.31397 0.209961 2.84397C0.209961 2.03397 0.499962 1.34391 1.06996 0.783908C1.64996 0.223908 2.33996 -0.0359988 3.15996 0.00400118C3.89996 0.0340012 4.53996 0.303938 5.05996 0.813938C5.58996 1.32394 5.85996 1.93389 5.89996 2.64389C5.92996 3.08389 5.85996 3.48398 5.69996 3.85398C6.80996 3.45398 7.95996 3.254 9.14996 3.254C9.95996 3.254 10.81 3.35393 11.69 3.55393C12.2 3.69393 12.92 3.91396 13.87 4.21396C14.68 4.48396 15.29 4.6739 15.7 4.7739C16.38 4.9439 17 5.0239 17.58 5.0239Z" fill="black"/>
<path d="M17.58 5.0239C19.2 5.0239 21.18 4.4839 23.52 3.4039C24.03 3.1639 24.54 3.194 25.04 3.504C25.55 3.804 25.8 4.264 25.8 4.874V17.214C25.8 17.794 25.57 18.2339 25.09 18.5339C23.1 19.9239 21.03 20.614 18.9 20.614C18.09 20.614 17.24 20.5139 16.36 20.3139C15.85 20.2139 15.12 19.9939 14.18 19.6539C13.36 19.3839 12.75 19.194 12.35 19.094C11.67 18.924 11.04 18.844 10.47 18.844C8.36996 18.844 6.43996 19.224 4.67996 20.004V24.7839C4.67996 25.1239 4.55996 25.4039 4.31996 25.6439C4.08996 25.8839 3.79996 26.004 3.45996 26.004H2.64996C2.30996 26.004 2.01996 25.8839 1.77996 25.6439C1.54996 25.4039 1.42996 25.1239 1.42996 24.7839V5.18393C1.05996 4.90393 0.759959 4.57391 0.539959 4.16391C0.319959 3.75391 0.209961 3.31397 0.209961 2.84397C0.209961 2.03397 0.499962 1.34391 1.06996 0.783908C1.64996 0.223908 2.33996 -0.0359988 3.15996 0.00400118C3.89996 0.0340012 4.53996 0.303938 5.05996 0.813938C5.58996 1.32394 5.85996 1.93389 5.89996 2.64389C5.92996 3.08389 5.85996 3.48398 5.69996 3.85398C6.80996 3.45398 7.95996 3.254 9.14996 3.254C9.95996 3.254 10.81 3.35393 11.69 3.55393C12.2 3.69393 12.92 3.91396 13.87 4.21396C14.68 4.48396 15.29 4.6739 15.7 4.7739C16.38 4.9439 17 5.0239 17.58 5.0239Z" fill="url(#paint0_linear)"/>
<path fill-rule="evenodd" clip-rule="evenodd" d="M31.0101 27.884C30.3101 29.074 29.3701 30.014 28.1801 30.714C27.0001 31.414 25.7001 31.754 24.3101 31.754C22.9101 31.754 21.6201 31.414 20.4301 30.714C19.2501 30.014 18.3001 29.074 17.6001 27.884C16.9101 26.694 16.5601 25.404 16.5601 24.004C16.5601 22.614 16.9101 21.324 17.6001 20.134C18.3001 18.944 19.2501 18.004 20.4301 17.304C21.6201 16.604 22.9101 16.254 24.3101 16.254C25.7001 16.254 27.0001 16.604 28.1801 17.304C29.3701 18.004 30.3101 18.944 31.0101 20.134C31.7101 21.324 32.0601 22.614 32.0601 24.004C32.0601 25.404 31.7101 26.694 31.0101 27.884ZM23.2901 25.994C23.0101 26.274 22.8701 26.614 22.8701 27.004C22.8701 27.404 23.0101 27.7439 23.2901 28.0239C23.5701 28.3039 23.9101 28.444 24.3101 28.444C24.7001 28.444 25.0401 28.3039 25.3201 28.0239C25.6001 27.7439 25.7501 27.404 25.7501 27.004C25.7501 26.614 25.6001 26.274 25.3201 25.994C25.0401 25.714 24.7001 25.574 24.3101 25.574C23.9101 25.574 23.5701 25.714 23.2901 25.994ZM23.1801 24.6639C23.1801 24.7439 23.2201 24.8239 23.2901 24.8939C23.3601 24.9739 23.4501 25.004 23.5601 25.004H25.0601C25.1601 25.004 25.2501 24.9739 25.3201 24.8939C25.4001 24.8239 25.4301 24.7439 25.4301 24.6639L25.6801 20.4139C25.6801 20.2939 25.6501 20.194 25.5701 20.114C25.5001 20.044 25.4101 20.004 25.3101 20.004H23.3101C23.2001 20.004 23.1101 20.044 23.0401 20.114C22.9701 20.194 22.9301 20.2939 22.9301 20.4139L23.1801 24.6639Z" fill="#05172D"/>
<defs>
<linearGradient id="paint0_linear" x1="13.005" y1="26.0032" x2="13.005" y2="0" gradientUnits="userSpaceOnUse">
<stop stop-color="#8C0618"/>
<stop offset="1" stop-color="#B01B30"/>
</linearGradient>
</defs>
</svg>
