<svg width="33" height="32" viewBox="0 0 33 32" fill="none" xmlns="http://www.w3.org/2000/svg">
<path d="M18.2802 5.02402C19.9002 5.02402 21.8802 4.48402 24.2202 3.40402C24.7302 3.16402 25.2402 3.194 25.7402 3.504C26.2502 3.804 26.5002 4.26399 26.5002 4.87399V17.214C26.5002 17.794 26.2702 18.234 25.7902 18.534C23.8002 19.924 21.7302 20.614 19.6002 20.614C18.7902 20.614 17.9402 20.514 17.0602 20.314C16.5502 20.214 15.8202 19.994 14.8802 19.654C14.0602 19.384 13.4502 19.194 13.0502 19.094C12.3702 18.924 11.7402 18.844 11.1702 18.844C9.07015 18.844 7.14016 19.224 5.38016 20.004V24.784C5.38016 25.124 5.26016 25.404 5.02016 25.644C4.79016 25.884 4.50016 26.004 4.16016 26.004H3.35015C3.01015 26.004 2.72016 25.884 2.48016 25.644C2.25016 25.404 2.13016 25.124 2.13016 24.784V5.18399C1.76016 4.90399 1.46015 4.57403 1.24015 4.16403C1.02015 3.75403 0.910156 3.31403 0.910156 2.84403C0.910156 2.03403 1.20016 1.34403 1.77016 0.784029C2.35016 0.224029 3.04016 -0.0360004 3.86016 0.00399963C4.60016 0.0339996 5.24015 0.303997 5.76015 0.813997C6.29015 1.324 6.56015 1.93401 6.60015 2.64401C6.63016 3.08401 6.56015 3.48404 6.40015 3.85404C7.51015 3.45404 8.66015 3.254 9.85015 3.254C10.6602 3.254 11.5102 3.35399 12.3902 3.55399C12.9002 3.69399 13.6202 3.91402 14.5702 4.21402C15.3802 4.48402 15.9902 4.67402 16.4002 4.77402C17.0802 4.94402 17.7002 5.02402 18.2802 5.02402Z" fill="url(#paint0_linear)"/>
<path d="M32.2001 18.894L30.54 17.184C30.31 16.944 30.0301 16.824 29.7001 16.824C29.3801 16.824 29.1 16.944 28.87 17.184L20.83 25.4741L17.23 21.744C17 21.514 16.72 21.394 16.4 21.394C16.07 21.394 15.79 21.514 15.56 21.744L13.9 23.4641C13.67 23.7041 13.55 23.984 13.55 24.324C13.55 24.664 13.67 24.944 13.9 25.184L18.33 29.754L20 31.4641C20.23 31.7041 20.5 31.824 20.83 31.824C21.16 31.824 21.44 31.7041 21.67 31.4641L23.33 29.754L32.2001 20.614C32.43 20.374 32.55 20.094 32.55 19.754C32.55 19.414 32.43 19.134 32.2001 18.894Z" fill="url(#paint1_linear)"/>
<defs>
<linearGradient id="paint0_linear" x1="13.7052" y1="26.0032" x2="13.7052" y2="0" gradientUnits="userSpaceOnUse">
<stop stop-color="#8C0618"/>
<stop offset="1" stop-color="#B01B30"/>
</linearGradient>
<linearGradient id="paint1_linear" x1="23.05" y1="31.822" x2="23.05" y2="16.826" gradientUnits="userSpaceOnUse">
<stop stop-color="#688B06"/>
<stop offset="1" stop-color="#88AF1B"/>
</linearGradient>
</defs>
</svg>
