<svg width="31" height="33" viewBox="0 0 31 33" fill="none" xmlns="http://www.w3.org/2000/svg">
<path d="M17.4301 5.02402C19.0501 5.02402 21.0301 4.48415 23.3701 3.40415C23.8801 3.16415 24.3901 3.194 24.8901 3.504C25.4001 3.804 25.6501 4.26412 25.6501 4.87412V17.214C25.6501 17.794 25.4201 18.234 24.9401 18.534C22.9501 19.924 20.8801 20.6141 18.7501 20.6141C17.9401 20.6141 17.0901 20.5141 16.2101 20.3141C15.7001 20.2141 14.9701 19.9941 14.0301 19.6541C13.2101 19.3841 12.6001 19.1941 12.2001 19.0941C11.5201 18.9241 10.8901 18.8441 10.3201 18.8441C8.22006 18.8441 6.29006 19.224 4.53006 20.004V24.784C4.53006 25.124 4.41006 25.4041 4.17006 25.6441C3.94006 25.8841 3.65006 26.004 3.31006 26.004H2.50006C2.16006 26.004 1.87006 25.8841 1.63006 25.6441C1.40006 25.4041 1.28006 25.124 1.28006 24.784V5.18418C0.91006 4.90418 0.610057 4.57416 0.390057 4.16416C0.170057 3.75416 0.0600586 3.31409 0.0600586 2.84409C0.0600586 2.03409 0.350059 1.34403 0.920059 0.784029C1.50006 0.224029 2.19006 -0.0360004 3.01006 0.00399963C3.75006 0.0339996 4.39006 0.304058 4.91006 0.814058C5.44006 1.32406 5.71006 1.93414 5.75006 2.64414C5.78006 3.08414 5.71006 3.4841 5.55006 3.8541C6.66006 3.4541 7.81006 3.254 9.00006 3.254C9.81006 3.254 10.6601 3.35405 11.5401 3.55405C12.0501 3.69405 12.7701 3.91396 13.7201 4.21396C14.5301 4.48396 15.1401 4.67402 15.5501 4.77402C16.2301 4.94402 16.8501 5.02402 17.4301 5.02402Z" fill="#666666"/>
<path fill-rule="evenodd" clip-rule="evenodd" d="M29.8602 28.884C29.1602 30.074 28.2202 31.0139 27.0302 31.7139C25.8502 32.4139 24.5502 32.7539 23.1602 32.7539C21.7602 32.7539 20.4702 32.4139 19.2802 31.7139C18.1002 31.0139 17.1502 30.074 16.4502 28.884C15.7602 27.694 15.4102 26.4039 15.4102 25.0039C15.4102 23.6139 15.7602 22.324 16.4502 21.134C17.1502 19.944 18.1002 19.004 19.2802 18.304C20.4702 17.604 21.7602 17.2539 23.1602 17.2539C24.5502 17.2539 25.8502 17.604 27.0302 18.304C28.2202 19.004 29.1602 19.944 29.8602 21.134C30.5602 22.324 30.9102 23.6139 30.9102 25.0039C30.9102 26.4039 30.5602 27.694 29.8602 28.884ZM22.1402 26.9939C21.8602 27.2739 21.7202 27.6139 21.7202 28.0039C21.7202 28.4039 21.8602 28.7439 22.1402 29.0239C22.4202 29.3039 22.7602 29.4441 23.1602 29.4441C23.5502 29.4441 23.8902 29.3039 24.1702 29.0239C24.4502 28.7439 24.6002 28.4039 24.6002 28.0039C24.6002 27.6139 24.4502 27.2739 24.1702 26.9939C23.8902 26.7139 23.5502 26.574 23.1602 26.574C22.7602 26.574 22.4202 26.7139 22.1402 26.9939ZM22.0302 25.6641C22.0302 25.7441 22.0702 25.824 22.1402 25.894C22.2102 25.974 22.3002 26.0039 22.4102 26.0039H23.9102C24.0102 26.0039 24.1002 25.974 24.1702 25.894C24.2502 25.824 24.2802 25.7441 24.2802 25.6641L24.5302 21.4141C24.5302 21.2941 24.5002 21.194 24.4202 21.114C24.3502 21.044 24.2602 21.0039 24.1602 21.0039H22.1602C22.0502 21.0039 21.9602 21.044 21.8902 21.114C21.8202 21.194 21.7802 21.2941 21.7802 21.4141L22.0302 25.6641Z" fill="black"/>
<path fill-rule="evenodd" clip-rule="evenodd" d="M29.8602 28.884C29.1602 30.074 28.2202 31.0139 27.0302 31.7139C25.8502 32.4139 24.5502 32.7539 23.1602 32.7539C21.7602 32.7539 20.4702 32.4139 19.2802 31.7139C18.1002 31.0139 17.1502 30.074 16.4502 28.884C15.7602 27.694 15.4102 26.4039 15.4102 25.0039C15.4102 23.6139 15.7602 22.324 16.4502 21.134C17.1502 19.944 18.1002 19.004 19.2802 18.304C20.4702 17.604 21.7602 17.2539 23.1602 17.2539C24.5502 17.2539 25.8502 17.604 27.0302 18.304C28.2202 19.004 29.1602 19.944 29.8602 21.134C30.5602 22.324 30.9102 23.6139 30.9102 25.0039C30.9102 26.4039 30.5602 27.694 29.8602 28.884ZM22.1402 26.9939C21.8602 27.2739 21.7202 27.6139 21.7202 28.0039C21.7202 28.4039 21.8602 28.7439 22.1402 29.0239C22.4202 29.3039 22.7602 29.4441 23.1602 29.4441C23.5502 29.4441 23.8902 29.3039 24.1702 29.0239C24.4502 28.7439 24.6002 28.4039 24.6002 28.0039C24.6002 27.6139 24.4502 27.2739 24.1702 26.9939C23.8902 26.7139 23.5502 26.574 23.1602 26.574C22.7602 26.574 22.4202 26.7139 22.1402 26.9939ZM22.0302 25.6641C22.0302 25.7441 22.0702 25.824 22.1402 25.894C22.2102 25.974 22.3002 26.0039 22.4102 26.0039H23.9102C24.0102 26.0039 24.1002 25.974 24.1702 25.894C24.2502 25.824 24.2802 25.7441 24.2802 25.6641L24.5302 21.4141C24.5302 21.2941 24.5002 21.194 24.4202 21.114C24.3502 21.044 24.2602 21.0039 24.1602 21.0039H22.1602C22.0502 21.0039 21.9602 21.044 21.8902 21.114C21.8202 21.194 21.7802 21.2941 21.7802 21.4141L22.0302 25.6641Z" fill="url(#paint0_linear)"/>
<defs>
<linearGradient id="paint0_linear" x1="30.7751" y1="32.7572" x2="12.4371" y2="23.2476" gradientUnits="userSpaceOnUse">
<stop stop-color="#0A3B8C"/>
<stop offset="1" stop-color="#1E50A6"/>
</linearGradient>
</defs>
</svg>
