<svg width="33" height="32" viewBox="0 0 33 32" fill="none" xmlns="http://www.w3.org/2000/svg">
<path d="M20.81 16.51C20.52 16.22 20.52 15.78 20.81 15.49L31.77 4.53003C32.06 4.24003 32.21 3.80001 32.21 3.51001C32.21 3.21001 32.06 2.77998 31.77 2.47998L29.73 0.439941C29.43 0.149941 29 0 28.7 0C28.26 0 27.97 0.149941 27.68 0.439941L16.72 11.3999C16.43 11.6899 15.99 11.6899 15.7 11.3999L4.73996 0.439941C4.44996 0.149941 4.00996 0 3.71996 0C3.41996 0 2.98996 0.149941 2.68996 0.439941L0.64996 2.47998C0.35996 2.77998 0.209961 3.21001 0.209961 3.51001C0.209961 3.80001 0.35996 4.24003 0.64996 4.53003L11.61 15.49C11.9 15.78 11.9 16.22 11.61 16.51L0.64996 27.47C0.35996 27.76 0.209961 28.2 0.209961 28.49C0.209961 28.79 0.35996 29.22 0.64996 29.52L2.68996 31.5601C2.98996 31.8501 3.41996 32 3.71996 32C4.00996 32 4.44996 31.8501 4.73996 31.5601L15.7 20.6001C15.99 20.3101 16.43 20.3101 16.72 20.6001L27.68 31.5601C27.97 31.8501 28.41 32 28.7 32C29 32 29.43 31.8501 29.73 31.5601L31.77 29.52C32.06 29.22 32.21 28.79 32.21 28.49C32.21 28.2 32.06 27.76 31.77 27.47L20.81 16.51Z" fill="url(#paint0_linear)"/>
<defs>
<linearGradient id="paint0_linear" x1="16.21" y1="32" x2="16.21" y2="0" gradientUnits="userSpaceOnUse">
<stop stop-color="#8C0618"/>
<stop offset="1" stop-color="#B01B30"/>
</linearGradient>
</defs>
</svg>
