<svg width="33" height="32" viewBox="0 0 33 32" fill="none" xmlns="http://www.w3.org/2000/svg">
<path d="M27.48 4.72998C24.46 1.70998 20.47 0 16.21 0C7.41996 0 0.209961 7.19 0.209961 16C0.209961 24.81 7.39996 32 16.21 32C24.98 32 32.21 24.84 32.21 16C32.21 11.74 30.5 7.74998 27.48 4.72998ZM16.21 28.19C9.46996 28.19 4.01996 22.75 4.01996 16C4.01996 13.37 4.84996 10.88 6.36996 8.82001L23.39 25.82C21.33 27.36 18.83 28.19 16.21 28.19ZM26.03 23.18L9.02996 6.15997C11.09 4.63997 13.58 3.81 16.21 3.81C22.95 3.81 28.4 9.25 28.4 16C28.4 18.62 27.57 21.12 26.03 23.18Z" fill="url(#paint0_linear)"/>
<defs>
<linearGradient id="paint0_linear" x1="16.21" y1="31.999" x2="16.21" y2="0" gradientUnits="userSpaceOnUse">
<stop stop-color="#8C0618"/>
<stop offset="1" stop-color="#B01B30"/>
</linearGradient>
</defs>
</svg>
