<svg width="33" height="31" viewBox="0 0 33 31" fill="none" xmlns="http://www.w3.org/2000/svg">
<path d="M28 2.478V10.848C28 10.848 26.19 11.198 25.81 11.248C25.44 11.298 24.27 11.668 23.42 10.858C22.11 9.62801 17.46 5.05796 17.46 5.05796C17.46 5.05796 16.66 4.27799 15.37 4.95799C14.19 5.56799 12.44 6.46797 11.71 6.81797C10.33 7.54797 9.18 6.39804 9.18 5.51804C9.18 4.83804 9.61 4.36805 10.23 4.02805C11.9 3.02805 15.41 1.08797 16.88 0.317971C17.77 -0.152029 18.41 -0.192019 19.63 0.827981C21.13 2.07798 22.47 3.218 22.47 3.218C22.47 3.218 22.91 3.57796 23.61 3.42796C25.32 3.06796 28 2.478 28 2.478ZM9.5 16.6581C9.72 16.0881 9.65 15.448 9.21 15.008C8.83 14.618 8.26 14.518 7.72 14.638C7.87 14.108 7.79 13.548 7.4 13.148C7.01 12.758 6.44 12.6581 5.9 12.7781C6.05 12.2481 5.97 11.6881 5.58 11.2881C4.97 10.6681 3.91 10.698 3.22 11.348C2.53 12.008 2.09 13.188 2.7 13.888C3.32 14.588 4.02 14.1581 4.56 14.0381C4.41 14.5681 3.96 15.058 4.52 15.748C5.07 16.438 5.84 16.018 6.38 15.898C6.23 16.428 5.8 16.968 6.33 17.608C6.87 18.248 7.75 17.908 8.33 17.728C8.1 18.298 7.62 18.918 8.24 19.598C8.86 20.288 10.28 19.968 10.97 19.318C11.67 18.668 11.73 17.628 11.12 17.008C10.7 16.578 10.07 16.4781 9.5 16.6581ZM22.17 12.308C17.15 7.34796 19.51 9.67803 16.81 7.00803C16.81 7.00803 16 6.20807 14.93 6.66807C14.18 6.99807 13.21 7.43805 12.48 7.77805C11.68 8.18805 11.1 8.31797 10.83 8.31797C9.29 8.30797 8.03 7.07796 8.03 5.55796C8.03 4.56796 8.57 3.708 9.36 3.218C10.47 2.458 13.04 1.10801 13.04 1.10801C13.04 1.10801 12.26 0.128029 10.55 0.128029C8.83 0.128029 5.25 2.43797 5.25 2.43797C5.25 2.43797 4.24 3.08803 2.79 2.50803L0 1.54807V11.128C0 11.128 0.799998 11.348 1.51 11.638C1.67 11.188 1.94 10.7681 2.3 10.4181C3.48 9.29807 5.45 9.28804 6.53 10.388C6.86 10.718 7.09 11.118 7.2 11.558C7.64 11.688 8.03 11.928 8.35 12.248C8.68 12.578 8.9 12.9781 9.02 13.4181C9.45 13.5581 9.85 13.788 10.17 14.108C10.52 14.478 10.76 14.918 10.87 15.398C11.33 15.528 11.74 15.768 12.07 16.098C12.72 16.758 12.95 17.658 12.81 18.518C12.83 18.528 13.22 18.968 13.46 19.208C13.94 19.678 14.72 19.678 15.2 19.208C15.68 18.738 15.68 17.968 15.2 17.488C15.18 17.468 13.47 15.708 13.61 15.568C13.75 15.428 15.93 17.668 15.97 17.708C16.45 18.188 17.23 18.188 17.71 17.708C18.19 17.238 18.19 16.468 17.71 15.998C17.68 15.968 17.59 15.878 17.55 15.838C17.55 15.838 15.39 13.9381 15.55 13.7781C15.72 13.6181 18.4 16.088 18.41 16.088C18.89 16.518 19.63 16.518 20.1 16.058C20.55 15.608 20.56 14.908 20.16 14.428C20.15 14.408 18.11 12.308 18.27 12.148C18.43 11.988 20.45 14.0381 20.45 14.0381C20.93 14.5081 21.71 14.5081 22.19 14.0381C22.67 13.5681 22.67 12.798 22.19 12.318C22.19 12.318 22.18 12.308 22.17 12.308Z" fill="url(#paint0_linear)"/>
<path fill-rule="evenodd" clip-rule="evenodd" d="M24.46 15.4181C25.85 15.4181 27.15 15.768 28.33 16.468C29.52 17.168 30.46 18.1081 31.16 19.2981C31.86 20.4881 32.21 21.7781 32.21 23.1681C32.21 24.5681 31.86 25.8581 31.16 27.0481C30.46 28.2381 29.52 29.1781 28.33 29.8781C27.15 30.5781 25.85 30.9181 24.46 30.9181C23.06 30.9181 21.77 30.5781 20.58 29.8781C19.4 29.1781 18.45 28.2381 17.75 27.0481C17.06 25.8581 16.71 24.5681 16.71 23.1681C16.71 21.7781 17.06 20.4881 17.75 19.2981C18.45 18.1081 19.4 17.168 20.58 16.468C21.77 15.768 23.06 15.4181 24.46 15.4181ZM26.24 26.358C26.32 26.418 26.42 26.4481 26.52 26.4181C26.62 26.3981 26.71 26.3481 26.77 26.2681L27.65 25.078C27.71 24.998 27.73 24.8981 27.72 24.7981C27.71 24.6981 27.67 24.6081 27.58 24.5481L25.58 23.108V18.7981C25.58 18.6981 25.55 18.6081 25.47 18.5281C25.4 18.4581 25.31 18.4181 25.21 18.4181H23.71C23.6 18.4181 23.51 18.4581 23.44 18.5281C23.37 18.6081 23.33 18.6981 23.33 18.7981V24.0481C23.33 24.1681 23.38 24.278 23.49 24.358L26.24 26.358Z" fill="url(#paint1_linear)"/>
<defs>
<linearGradient id="paint0_linear" x1="27.756" y1="19.989" x2="0.243984" y2="-6.12755e-06" gradientUnits="userSpaceOnUse">
<stop stop-color="#0A3B8C"/>
<stop offset="1" stop-color="#1E50A6"/>
</linearGradient>
<linearGradient id="paint1_linear" x1="24.46" y1="30.916" x2="24.46" y2="15.4202" gradientUnits="userSpaceOnUse">
<stop stop-color="#688B06"/>
<stop offset="1" stop-color="#88AF1B"/>
</linearGradient>
</defs>
</svg>
