<svg width="31" height="31" viewBox="0 0 31 31" fill="none" xmlns="http://www.w3.org/2000/svg">
<g clip-path="url(#clip0)">
<path fill-rule="evenodd" clip-rule="evenodd" d="M26.704 22.692C26.5942 22.8076 26.5329 22.9608 26.5329 23.1202C26.5329 23.2796 26.5942 23.433 26.704 23.5485C26.7577 23.6056 26.8227 23.6508 26.8949 23.6812C26.9672 23.7115 27.045 23.7264 27.1234 23.7248H30.4175C30.4958 23.7264 30.5736 23.7115 30.6458 23.6812C30.7181 23.6508 30.7832 23.6056 30.8368 23.5485C30.8928 23.4922 30.9368 23.4252 30.9662 23.3514C30.9956 23.2777 31.0099 23.1988 31.0081 23.1194V19.742C31.0097 19.6627 30.9953 19.5839 30.9659 19.5102C30.9365 19.4365 30.8926 19.3694 30.8368 19.3129C30.7823 19.2572 30.7171 19.213 30.6452 19.1828C30.5734 19.1526 30.4963 19.1371 30.4183 19.1371C30.3403 19.1371 30.2632 19.1526 30.1913 19.1828C30.1195 19.213 30.0544 19.2572 29.9998 19.3129L29.1154 20.2201C28.5657 19.6707 27.914 19.2339 27.1968 18.9344C26.3932 18.6023 25.5268 18.4494 24.6581 18.4863C23.7893 18.5232 22.9391 18.7491 22.1666 19.1482C21.331 19.5905 20.606 20.2157 20.0456 20.9772C19.4736 21.745 19.0867 22.6345 18.9149 23.5763C18.9068 23.6184 18.9081 23.6617 18.9189 23.7032C18.9296 23.7447 18.9494 23.7832 18.9768 23.8161C19.0036 23.8524 19.0389 23.8817 19.0796 23.9013C19.1203 23.921 19.165 23.9304 19.2102 23.9287H20.6117C20.6831 23.9322 20.7533 23.9096 20.8092 23.8651C20.8587 23.8228 20.8931 23.7655 20.9071 23.7019C21.1197 22.7877 21.6376 21.9734 22.3754 21.3932C23.0934 20.8071 23.9939 20.4908 24.9207 20.4992C25.4386 20.4981 25.952 20.5961 26.4332 20.788C26.9205 20.985 27.3666 21.2716 27.7483 21.633L26.704 22.692ZM18.9817 25.9209C18.9259 25.977 18.882 26.0437 18.8526 26.1172C18.8231 26.1906 18.8088 26.2692 18.8104 26.3483V29.729C18.8089 29.8083 18.8232 29.8872 18.8526 29.9609C18.8821 30.0346 18.9259 30.1016 18.9817 30.1581C19.0363 30.2138 19.1014 30.258 19.1733 30.2882C19.2452 30.3185 19.3223 30.334 19.4003 30.334C19.4782 30.334 19.5553 30.3185 19.6272 30.2882C19.6991 30.258 19.7642 30.2138 19.8187 30.1581L20.7031 29.2493C21.2528 29.7992 21.9045 30.2365 22.6218 30.5366C23.3453 30.8387 24.122 30.993 24.906 30.9902C25.8615 30.9968 26.8036 30.767 27.6487 30.3212C28.4915 29.8776 29.2229 29.2489 29.788 28.4823C30.3532 27.7157 30.7374 26.831 30.9118 25.8947C30.9195 25.8526 30.918 25.8095 30.9073 25.768C30.8965 25.7266 30.877 25.688 30.8499 25.6549C30.8231 25.6186 30.7878 25.5893 30.7471 25.5697C30.7065 25.5501 30.6617 25.5408 30.6166 25.5424H29.215C29.144 25.539 29.0739 25.5609 29.0176 25.6043C28.9686 25.6471 28.9344 25.7042 28.9197 25.7675C28.7068 26.6812 28.1889 27.4948 27.4513 28.0745C26.7338 28.6617 25.8331 28.9787 24.906 28.9703C24.3881 28.9716 23.8746 28.8736 23.3936 28.6815C22.906 28.4848 22.4599 28.1981 22.0785 27.8363L23.1112 26.7758C23.2211 26.6603 23.2823 26.5069 23.2823 26.3475C23.2823 26.1881 23.2211 26.0348 23.1112 25.9192C23.0574 25.8622 22.9924 25.8171 22.9202 25.7865C22.8481 25.7559 22.7704 25.7404 22.692 25.7414H19.3978C19.3201 25.7403 19.2432 25.7552 19.1716 25.7853C19.1 25.8153 19.0353 25.8598 18.9817 25.9159V25.9209Z" fill="white"/>
<path fill-rule="evenodd" clip-rule="evenodd" d="M26.704 22.692C26.5942 22.8076 26.5329 22.9608 26.5329 23.1202C26.5329 23.2796 26.5942 23.433 26.704 23.5485C26.7577 23.6056 26.8227 23.6508 26.8949 23.6812C26.9672 23.7115 27.045 23.7264 27.1234 23.7248H30.4175C30.4958 23.7264 30.5736 23.7115 30.6458 23.6812C30.7181 23.6508 30.7832 23.6056 30.8368 23.5485C30.8928 23.4922 30.9368 23.4252 30.9662 23.3514C30.9956 23.2777 31.0099 23.1988 31.0081 23.1194V19.742C31.0097 19.6627 30.9953 19.5839 30.9659 19.5102C30.9365 19.4365 30.8926 19.3694 30.8368 19.3129C30.7823 19.2572 30.7171 19.213 30.6452 19.1828C30.5734 19.1526 30.4963 19.1371 30.4183 19.1371C30.3403 19.1371 30.2632 19.1526 30.1913 19.1828C30.1195 19.213 30.0544 19.2572 29.9998 19.3129L29.1154 20.2201C28.5657 19.6707 27.914 19.2339 27.1968 18.9344C26.3932 18.6023 25.5268 18.4494 24.6581 18.4863C23.7893 18.5232 22.9391 18.7491 22.1666 19.1482C21.331 19.5905 20.606 20.2157 20.0456 20.9772C19.4736 21.745 19.0867 22.6345 18.9149 23.5763C18.9068 23.6184 18.9081 23.6617 18.9189 23.7032C18.9296 23.7447 18.9494 23.7832 18.9768 23.8161C19.0036 23.8524 19.0389 23.8817 19.0796 23.9013C19.1203 23.921 19.165 23.9304 19.2102 23.9287H20.6117C20.6831 23.9322 20.7533 23.9096 20.8092 23.8651C20.8587 23.8228 20.8931 23.7655 20.9071 23.7019C21.1197 22.7877 21.6376 21.9734 22.3754 21.3932C23.0934 20.8071 23.9939 20.4908 24.9207 20.4992C25.4386 20.4981 25.952 20.5961 26.4332 20.788C26.9205 20.985 27.3666 21.2716 27.7483 21.633L26.704 22.692ZM18.9817 25.9209C18.9259 25.977 18.882 26.0437 18.8526 26.1172C18.8231 26.1906 18.8088 26.2692 18.8104 26.3483V29.729C18.8089 29.8083 18.8232 29.8872 18.8526 29.9609C18.8821 30.0346 18.9259 30.1016 18.9817 30.1581C19.0363 30.2138 19.1014 30.258 19.1733 30.2882C19.2452 30.3185 19.3223 30.334 19.4003 30.334C19.4782 30.334 19.5553 30.3185 19.6272 30.2882C19.6991 30.258 19.7642 30.2138 19.8187 30.1581L20.7031 29.2493C21.2528 29.7992 21.9045 30.2365 22.6218 30.5366C23.3453 30.8387 24.122 30.993 24.906 30.9902C25.8615 30.9968 26.8036 30.767 27.6487 30.3212C28.4915 29.8776 29.2229 29.2489 29.788 28.4823C30.3532 27.7157 30.7374 26.831 30.9118 25.8947C30.9195 25.8526 30.918 25.8095 30.9073 25.768C30.8965 25.7266 30.877 25.688 30.8499 25.6549C30.8231 25.6186 30.7878 25.5893 30.7471 25.5697C30.7065 25.5501 30.6617 25.5408 30.6166 25.5424H29.215C29.144 25.539 29.0739 25.5609 29.0176 25.6043C28.9686 25.6471 28.9344 25.7042 28.9197 25.7675C28.7068 26.6812 28.1889 27.4948 27.4513 28.0745C26.7338 28.6617 25.8331 28.9787 24.906 28.9703C24.3881 28.9716 23.8746 28.8736 23.3936 28.6815C22.906 28.4848 22.4599 28.1981 22.0785 27.8363L23.1112 26.7758C23.2211 26.6603 23.2823 26.5069 23.2823 26.3475C23.2823 26.1881 23.2211 26.0348 23.1112 25.9192C23.0574 25.8622 22.9924 25.8171 22.9202 25.7865C22.8481 25.7559 22.7704 25.7404 22.692 25.7414H19.3978C19.3201 25.7403 19.2432 25.7552 19.1716 25.7853C19.1 25.8153 19.0353 25.8598 18.9817 25.9159V25.9209Z" fill="url(#paint0_linear)"/>
<path fill-rule="evenodd" clip-rule="evenodd" d="M10.1713 14.2497C10.1715 14.1729 10.1565 14.0967 10.1273 14.0257C10.098 13.9546 10.0551 13.8901 10.0008 13.8357C9.94653 13.7813 9.88206 13.7381 9.81108 13.7086C9.74011 13.6791 9.66396 13.664 9.58712 13.664H7.54605C7.39099 13.6644 7.24237 13.7264 7.13288 13.8362C7.02339 13.946 6.96199 14.0947 6.96199 14.2497V16.2957C6.96199 16.4508 7.02339 16.5996 7.13288 16.7094C7.24237 16.8192 7.39099 16.881 7.54605 16.8814H9.58712C9.66396 16.8814 9.74011 16.8663 9.81108 16.8368C9.88206 16.8074 9.94653 16.7643 10.0008 16.7099C10.0551 16.6554 10.098 16.5908 10.1273 16.5197C10.1565 16.4487 10.1715 16.3725 10.1713 16.2957V14.2497ZM15.27 14.2497C15.27 14.0947 15.2085 13.946 15.099 13.8362C14.9895 13.7264 14.8409 13.6644 14.6858 13.664H12.6447C12.4897 13.6644 12.3411 13.7264 12.2316 13.8362C12.1221 13.946 12.0607 14.0947 12.0607 14.2497V16.2957C12.0607 16.4508 12.1221 16.5996 12.2316 16.7094C12.3411 16.8192 12.4897 16.881 12.6447 16.8814H14.6842C14.8393 16.881 14.9879 16.8192 15.0974 16.7094C15.2069 16.5996 15.2683 16.4508 15.2683 16.2957V14.2497H15.27ZM20.3686 14.2497C20.3686 14.0944 20.3069 13.9454 20.1971 13.8356C20.0872 13.7257 19.9382 13.664 19.7829 13.664H17.7434C17.6666 13.664 17.5905 13.6791 17.5196 13.7086C17.4486 13.7381 17.3841 13.7813 17.3298 13.8357C17.2756 13.8901 17.2325 13.9546 17.2033 14.0257C17.174 14.0967 17.1591 14.1729 17.1594 14.2497V16.2957C17.1591 16.3725 17.174 16.4487 17.2033 16.5197C17.2325 16.5908 17.2756 16.6554 17.3298 16.7099C17.3841 16.7643 17.4486 16.8074 17.5196 16.8368C17.5905 16.8663 17.6666 16.8814 17.7434 16.8814H19.7829C19.8598 16.8814 19.936 16.8664 20.0071 16.8369C20.0781 16.8075 20.1427 16.7642 20.1971 16.7099C20.2515 16.6555 20.2946 16.5909 20.324 16.5198C20.3535 16.4488 20.3686 16.3726 20.3686 16.2957V14.2497ZM10.1713 19.3631C10.1715 19.2862 10.1565 19.2102 10.1273 19.1391C10.098 19.068 10.0551 19.0034 10.0008 18.949C9.94653 18.8946 9.88206 18.8515 9.81108 18.822C9.74011 18.7926 9.66396 18.7773 9.58712 18.7773H7.54605C7.46921 18.7773 7.39316 18.7926 7.32219 18.822C7.25121 18.8515 7.18674 18.8946 7.13248 18.949C7.07822 19.0034 7.03517 19.068 7.00591 19.1391C6.97665 19.2102 6.96178 19.2862 6.96199 19.3631V21.4091C6.96199 21.5642 7.02339 21.7129 7.13288 21.8227C7.24237 21.9325 7.39099 21.9944 7.54605 21.9949H9.58712C9.66396 21.9949 9.74011 21.9797 9.81108 21.9502C9.88206 21.9208 9.94653 21.8776 10.0008 21.8232C10.0551 21.7688 10.098 21.7041 10.1273 21.6331C10.1565 21.562 10.1715 21.486 10.1713 21.4091V19.3631ZM15.27 19.3631C15.2702 19.2862 15.2552 19.2102 15.2259 19.1391C15.1967 19.068 15.1537 19.0034 15.0995 18.949C15.0452 18.8946 14.9807 18.8515 14.9098 18.822C14.8388 18.7926 14.7626 18.7773 14.6858 18.7773H12.6447C12.5679 18.7773 12.4918 18.7926 12.4209 18.822C12.3499 18.8515 12.2854 18.8946 12.2312 18.949C12.1769 19.0034 12.1339 19.068 12.1046 19.1391C12.0753 19.2102 12.0605 19.2862 12.0607 19.3631V21.4091C12.0607 21.5642 12.1221 21.7129 12.2316 21.8227C12.3411 21.9325 12.4897 21.9944 12.6447 21.9949H14.6842C14.8393 21.9944 14.9879 21.9325 15.0974 21.8227C15.2069 21.7129 15.2683 21.5642 15.2683 21.4091V19.3631H15.27ZM17.1773 26.5714H3.22073C2.42251 26.3835 1.69492 25.9707 1.1241 25.382C0.553277 24.7932 0.163148 24.0532 0 23.2495V5.53547C0 4.27916 2.0835 2.91192 3.31534 2.8744V5.99883C3.31491 6.33392 3.38055 6.66577 3.50853 6.97545C3.63652 7.28514 3.82435 7.56657 4.06122 7.80359C4.29809 8.04061 4.57936 8.22859 4.88896 8.35678C5.19856 8.48496 5.53039 8.55088 5.86548 8.55067H7.47425C8.1525 8.55153 8.80337 8.28335 9.28419 7.80498C9.765 7.32662 10.0365 6.67708 10.0391 5.99883V2.86295H17.2947V5.99883C17.2973 6.67708 17.5688 7.32662 18.0496 7.80498C18.5305 8.28335 19.1813 8.55153 19.8596 8.55067H21.4683C21.8034 8.55088 22.1353 8.48496 22.4449 8.35678C22.7545 8.22859 23.0357 8.04061 23.2726 7.80359C23.5095 7.56657 23.6973 7.28514 23.8253 6.97545C23.9533 6.66577 24.0189 6.33392 24.0185 5.99883V2.8744C24.7143 2.95118 25.3663 3.25232 25.8758 3.73241C26.3853 4.2125 26.7248 4.84542 26.8428 5.53547V16.6057H23.2712V12.9021C23.2716 12.6371 23.1669 12.3828 22.98 12.1949C22.7931 12.0071 22.5393 11.9011 22.2743 11.9003H5.01543C4.88417 11.9005 4.7543 11.9266 4.63313 11.977C4.51196 12.0275 4.40188 12.1014 4.30928 12.1944C4.21669 12.2875 4.14337 12.3979 4.09349 12.5193C4.0436 12.6407 4.01817 12.7708 4.0186 12.9021V22.3652C4.01817 22.4964 4.04358 22.6264 4.09349 22.7477C4.14339 22.869 4.21677 22.9793 4.30938 23.0723C4.402 23.1652 4.51207 23.2388 4.63323 23.2891C4.75439 23.3395 4.88424 23.3653 5.01543 23.3653L17.1773 23.2544V26.5714ZM5.85901 6.87985H7.44975C7.68213 6.87985 7.90505 6.78754 8.06936 6.62322C8.23368 6.45891 8.32599 6.23609 8.32599 6.00371V0.880533C8.32621 0.765414 8.30362 0.651433 8.25967 0.545036C8.21571 0.438638 8.15116 0.341927 8.06976 0.260525C7.98836 0.179124 7.89175 0.114574 7.78535 0.0706192C7.67895 0.0266643 7.56487 0.00418108 7.44975 0.00439606H5.85901C5.74402 0.00439586 5.63012 0.0270661 5.52391 0.0711171C5.4177 0.115168 5.32122 0.179743 5.23999 0.261123C5.15876 0.342503 5.09444 0.439143 5.05058 0.545434C5.00673 0.651725 4.98425 0.765551 4.98446 0.880533V6.00371C4.98575 6.23495 5.07846 6.45633 5.24228 6.61954C5.4061 6.78275 5.62776 6.87454 5.85901 6.87497V6.87985ZM19.8368 6.87985H21.4275C21.6596 6.87942 21.8821 6.78699 22.046 6.62273C22.21 6.45846 22.3021 6.2358 22.3021 6.00371V0.880533C22.3023 0.765551 22.2798 0.651725 22.2359 0.545434C22.1921 0.439143 22.1278 0.342503 22.0465 0.261123C21.9653 0.179743 21.8688 0.115168 21.7626 0.0711171C21.6564 0.0270661 21.5425 0.00439586 21.4275 0.00439606H19.8368C19.7218 0.00439586 19.6079 0.0270661 19.5017 0.0711171C19.3955 0.115168 19.299 0.179743 19.2178 0.261123C19.1365 0.342503 19.0722 0.439143 19.0283 0.545434C18.9845 0.651725 18.962 0.765551 18.9622 0.880533V6.00371C18.9635 6.23495 19.0561 6.45633 19.2199 6.61954C19.3838 6.78275 19.6055 6.87454 19.8368 6.87497V6.87985Z" fill="white"/>
<path fill-rule="evenodd" clip-rule="evenodd" d="M10.1713 14.2497C10.1715 14.1729 10.1565 14.0967 10.1273 14.0257C10.098 13.9546 10.0551 13.8901 10.0008 13.8357C9.94653 13.7813 9.88206 13.7381 9.81108 13.7086C9.74011 13.6791 9.66396 13.664 9.58712 13.664H7.54605C7.39099 13.6644 7.24237 13.7264 7.13288 13.8362C7.02339 13.946 6.96199 14.0947 6.96199 14.2497V16.2957C6.96199 16.4508 7.02339 16.5996 7.13288 16.7094C7.24237 16.8192 7.39099 16.881 7.54605 16.8814H9.58712C9.66396 16.8814 9.74011 16.8663 9.81108 16.8368C9.88206 16.8074 9.94653 16.7643 10.0008 16.7099C10.0551 16.6554 10.098 16.5908 10.1273 16.5197C10.1565 16.4487 10.1715 16.3725 10.1713 16.2957V14.2497ZM15.27 14.2497C15.27 14.0947 15.2085 13.946 15.099 13.8362C14.9895 13.7264 14.8409 13.6644 14.6858 13.664H12.6447C12.4897 13.6644 12.3411 13.7264 12.2316 13.8362C12.1221 13.946 12.0607 14.0947 12.0607 14.2497V16.2957C12.0607 16.4508 12.1221 16.5996 12.2316 16.7094C12.3411 16.8192 12.4897 16.881 12.6447 16.8814H14.6842C14.8393 16.881 14.9879 16.8192 15.0974 16.7094C15.2069 16.5996 15.2683 16.4508 15.2683 16.2957V14.2497H15.27ZM20.3686 14.2497C20.3686 14.0944 20.3069 13.9454 20.1971 13.8356C20.0872 13.7257 19.9382 13.664 19.7829 13.664H17.7434C17.6666 13.664 17.5905 13.6791 17.5196 13.7086C17.4486 13.7381 17.3841 13.7813 17.3298 13.8357C17.2756 13.8901 17.2325 13.9546 17.2033 14.0257C17.174 14.0967 17.1591 14.1729 17.1594 14.2497V16.2957C17.1591 16.3725 17.174 16.4487 17.2033 16.5197C17.2325 16.5908 17.2756 16.6554 17.3298 16.7099C17.3841 16.7643 17.4486 16.8074 17.5196 16.8368C17.5905 16.8663 17.6666 16.8814 17.7434 16.8814H19.7829C19.8598 16.8814 19.936 16.8664 20.0071 16.8369C20.0781 16.8075 20.1427 16.7642 20.1971 16.7099C20.2515 16.6555 20.2946 16.5909 20.324 16.5198C20.3535 16.4488 20.3686 16.3726 20.3686 16.2957V14.2497ZM10.1713 19.3631C10.1715 19.2862 10.1565 19.2102 10.1273 19.1391C10.098 19.068 10.0551 19.0034 10.0008 18.949C9.94653 18.8946 9.88206 18.8515 9.81108 18.822C9.74011 18.7926 9.66396 18.7773 9.58712 18.7773H7.54605C7.46921 18.7773 7.39316 18.7926 7.32219 18.822C7.25121 18.8515 7.18674 18.8946 7.13248 18.949C7.07822 19.0034 7.03517 19.068 7.00591 19.1391C6.97665 19.2102 6.96178 19.2862 6.96199 19.3631V21.4091C6.96199 21.5642 7.02339 21.7129 7.13288 21.8227C7.24237 21.9325 7.39099 21.9944 7.54605 21.9949H9.58712C9.66396 21.9949 9.74011 21.9797 9.81108 21.9502C9.88206 21.9208 9.94653 21.8776 10.0008 21.8232C10.0551 21.7688 10.098 21.7041 10.1273 21.6331C10.1565 21.562 10.1715 21.486 10.1713 21.4091V19.3631ZM15.27 19.3631C15.2702 19.2862 15.2552 19.2102 15.2259 19.1391C15.1967 19.068 15.1537 19.0034 15.0995 18.949C15.0452 18.8946 14.9807 18.8515 14.9098 18.822C14.8388 18.7926 14.7626 18.7773 14.6858 18.7773H12.6447C12.5679 18.7773 12.4918 18.7926 12.4209 18.822C12.3499 18.8515 12.2854 18.8946 12.2312 18.949C12.1769 19.0034 12.1339 19.068 12.1046 19.1391C12.0753 19.2102 12.0605 19.2862 12.0607 19.3631V21.4091C12.0607 21.5642 12.1221 21.7129 12.2316 21.8227C12.3411 21.9325 12.4897 21.9944 12.6447 21.9949H14.6842C14.8393 21.9944 14.9879 21.9325 15.0974 21.8227C15.2069 21.7129 15.2683 21.5642 15.2683 21.4091V19.3631H15.27ZM17.1773 26.5714H3.22073C2.42251 26.3835 1.69492 25.9707 1.1241 25.382C0.553277 24.7932 0.163148 24.0532 0 23.2495V5.53547C0 4.27916 2.0835 2.91192 3.31534 2.8744V5.99883C3.31491 6.33392 3.38055 6.66577 3.50853 6.97545C3.63652 7.28514 3.82435 7.56657 4.06122 7.80359C4.29809 8.04061 4.57936 8.22859 4.88896 8.35678C5.19856 8.48496 5.53039 8.55088 5.86548 8.55067H7.47425C8.1525 8.55153 8.80337 8.28335 9.28419 7.80498C9.765 7.32662 10.0365 6.67708 10.0391 5.99883V2.86295H17.2947V5.99883C17.2973 6.67708 17.5688 7.32662 18.0496 7.80498C18.5305 8.28335 19.1813 8.55153 19.8596 8.55067H21.4683C21.8034 8.55088 22.1353 8.48496 22.4449 8.35678C22.7545 8.22859 23.0357 8.04061 23.2726 7.80359C23.5095 7.56657 23.6973 7.28514 23.8253 6.97545C23.9533 6.66577 24.0189 6.33392 24.0185 5.99883V2.8744C24.7143 2.95118 25.3663 3.25232 25.8758 3.73241C26.3853 4.2125 26.7248 4.84542 26.8428 5.53547V16.6057H23.2712V12.9021C23.2716 12.6371 23.1669 12.3828 22.98 12.1949C22.7931 12.0071 22.5393 11.9011 22.2743 11.9003H5.01543C4.88417 11.9005 4.7543 11.9266 4.63313 11.977C4.51196 12.0275 4.40188 12.1014 4.30928 12.1944C4.21669 12.2875 4.14337 12.3979 4.09349 12.5193C4.0436 12.6407 4.01817 12.7708 4.0186 12.9021V22.3652C4.01817 22.4964 4.04358 22.6264 4.09349 22.7477C4.14339 22.869 4.21677 22.9793 4.30938 23.0723C4.402 23.1652 4.51207 23.2388 4.63323 23.2891C4.75439 23.3395 4.88424 23.3653 5.01543 23.3653L17.1773 23.2544V26.5714ZM5.85901 6.87985H7.44975C7.68213 6.87985 7.90505 6.78754 8.06936 6.62322C8.23368 6.45891 8.32599 6.23609 8.32599 6.00371V0.880533C8.32621 0.765414 8.30362 0.651433 8.25967 0.545036C8.21571 0.438638 8.15116 0.341927 8.06976 0.260525C7.98836 0.179124 7.89175 0.114574 7.78535 0.0706192C7.67895 0.0266643 7.56487 0.00418108 7.44975 0.00439606H5.85901C5.74402 0.00439586 5.63012 0.0270661 5.52391 0.0711171C5.4177 0.115168 5.32122 0.179743 5.23999 0.261123C5.15876 0.342503 5.09444 0.439143 5.05058 0.545434C5.00673 0.651725 4.98425 0.765551 4.98446 0.880533V6.00371C4.98575 6.23495 5.07846 6.45633 5.24228 6.61954C5.4061 6.78275 5.62776 6.87454 5.85901 6.87497V6.87985ZM19.8368 6.87985H21.4275C21.6596 6.87942 21.8821 6.78699 22.046 6.62273C22.21 6.45846 22.3021 6.2358 22.3021 6.00371V0.880533C22.3023 0.765551 22.2798 0.651725 22.2359 0.545434C22.1921 0.439143 22.1278 0.342503 22.0465 0.261123C21.9653 0.179743 21.8688 0.115168 21.7626 0.0711171C21.6564 0.0270661 21.5425 0.00439586 21.4275 0.00439606H19.8368C19.7218 0.00439586 19.6079 0.0270661 19.5017 0.0711171C19.3955 0.115168 19.299 0.179743 19.2178 0.261123C19.1365 0.342503 19.0722 0.439143 19.0283 0.545434C18.9845 0.651725 18.962 0.765551 18.9622 0.880533V6.00371C18.9635 6.23495 19.0561 6.45633 19.2199 6.61954C19.3838 6.78275 19.6055 6.87454 19.8368 6.87497V6.87985Z" fill="url(#paint1_linear)"/>
</g>
<defs>
<linearGradient id="paint0_linear" x1="24.9093" y1="30.9887" x2="24.9093" y2="18.4826" gradientUnits="userSpaceOnUse">
<stop stop-color="#688B06"/>
<stop offset="1" stop-color="#88AF1B"/>
</linearGradient>
<linearGradient id="paint1_linear" x1="26.6089" y1="26.577" x2="-5.00895" y2="10.0107" gradientUnits="userSpaceOnUse">
<stop stop-color="#0A3B8C"/>
<stop offset="1" stop-color="#1E50A6"/>
</linearGradient>
<clipPath id="clip0">
<rect width="31" height="31" fill="white"/>
</clipPath>
</defs>
</svg>
