<svg width="50" height="44" viewBox="0 0 50 44" fill="none" xmlns="http://www.w3.org/2000/svg">
<path d="M30.1728 8.18307C32.4847 9.63259 34.1058 12.0855 34.401 14.9327C35.3438 15.3733 36.3902 15.6266 37.4997 15.6266C41.55 15.6266 44.8328 12.3438 44.8328 8.29414C44.8328 4.24385 41.55 0.96106 37.4997 0.96106C33.4881 0.962308 30.234 4.18644 30.1728 8.18307ZM25.3688 23.1974C29.4191 23.1974 32.7019 19.914 32.7019 15.8643C32.7019 11.8147 29.4184 8.53188 25.3688 8.53188C21.3191 8.53188 18.0344 11.8153 18.0344 15.865C18.0344 19.9146 21.3191 23.1974 25.3688 23.1974ZM28.4793 23.6972H22.257C17.0797 23.6972 12.8678 27.9098 12.8678 33.087V40.6965L12.8872 40.8157L13.4113 40.9798C18.3521 42.5235 22.6445 43.0383 26.1775 43.0383C33.0781 43.0383 37.0779 41.0709 37.3244 40.9455L37.8142 40.6977H37.8666V33.087C37.8685 27.9098 33.6566 23.6972 28.4793 23.6972ZM40.6115 16.127H34.4372C34.3704 18.5974 33.3159 20.8219 31.648 22.4218C36.2498 23.7902 39.6169 28.0577 39.6169 33.0982V35.4431C45.7132 35.2198 49.2263 33.4919 49.4578 33.3759L49.9476 33.1275H50V25.5155C50 20.3389 45.7881 16.127 40.6115 16.127ZM12.5016 15.6279C13.9361 15.6279 15.2708 15.2092 16.4015 14.4959C16.7609 12.1516 18.0176 10.1031 19.8128 8.70785C19.8203 8.57057 19.8334 8.43454 19.8334 8.29602C19.8334 4.24572 16.55 0.962931 12.5016 0.962931C8.45064 0.962931 5.16848 4.24572 5.16848 8.29602C5.16848 12.3444 8.45064 15.6279 12.5016 15.6279ZM19.0871 22.4218C17.4273 20.83 16.3765 18.6174 16.2998 16.162C16.0708 16.1451 15.8443 16.127 15.6109 16.127H9.38912C4.21191 16.127 0 20.3389 0 25.5155V33.1263L0.0193436 33.2436L0.543492 33.409C4.50705 34.6463 8.04443 35.2166 11.1169 35.3964V33.0982C11.1182 28.0577 14.484 23.7915 19.0871 22.4218Z" fill="#05172D"/>
</svg>
