<svg width="65" height="65" viewBox="0 0 65 65" fill="none" xmlns="http://www.w3.org/2000/svg">
<path d="M30.3691 21.2578L15.6372 15.6826C15.0504 15.4605 14.3917 15.723 14.1191 16.2871L8.61828 27.6546C5.99723 33.0709 8.58547 39.5686 14.2137 41.6975C19.8407 43.8276 26.0823 40.6715 27.7039 34.8767L31.1061 22.7154C31.2752 22.1122 30.9559 21.4799 30.3691 21.2578Z" fill="#F1F1F1"/>
<path d="M30.3692 21.2586L24.5769 19.0667L20.5311 33.526C19.3688 37.6815 15.5098 40.2988 11.4388 40.1196C12.2528 40.7695 13.1816 41.3084 14.2138 41.6983C19.8408 43.8284 26.0824 40.6723 27.704 34.8775L31.1062 22.7162C31.2753 22.113 30.956 21.4807 30.3692 21.2586Z" fill="#DFDFDE"/>
<path d="M29.7043 27.7311L7.87524 29.7237C6.69028 34.6251 9.28862 39.8356 14.2127 41.6995C19.841 43.8284 26.0825 40.6723 27.7041 34.8787L29.7043 27.7311Z" fill="#CF394E"/>
<path d="M29.7042 27.7311L21.9546 28.4378L20.5311 33.5259C19.3689 37.6815 15.5099 40.2975 11.4401 40.1195C11.4565 40.1334 11.4729 40.146 11.4893 40.1587C11.7531 40.3669 12.0282 40.5625 12.3146 40.7455C12.35 40.7669 12.3828 40.7896 12.4181 40.8111C12.4888 40.8553 12.5607 40.8969 12.6327 40.9398C12.6894 40.9726 12.7462 41.0067 12.8043 41.0395C12.8686 41.0761 12.9343 41.1114 12.9999 41.1455C13.0693 41.1834 13.1387 41.22 13.2094 41.2553C13.2687 41.2856 13.328 41.3146 13.3886 41.3436C13.4731 41.384 13.5602 41.4244 13.646 41.4623C13.6952 41.485 13.7432 41.5077 13.7936 41.5279C13.9312 41.5872 14.0713 41.6452 14.2126 41.6982C14.4398 41.784 14.6682 41.8585 14.8966 41.9279C15.1578 42.0061 15.4203 42.0743 15.684 42.1323C15.9251 42.1841 16.1661 42.2283 16.4071 42.2623C16.7289 42.309 17.0507 42.3393 17.3725 42.3544C17.3877 42.3544 17.4028 42.3557 17.4179 42.357C20.9602 42.5034 24.3599 40.7846 26.3386 37.8417C26.4383 37.6941 26.5342 37.5439 26.6251 37.39C26.8093 37.0846 26.9784 36.7653 27.1298 36.4359C27.3595 35.9413 27.5513 35.4213 27.704 34.8774L29.7042 27.7311Z" fill="#AF1B2F"/>
<path d="M34.2432 21.2578L48.9764 15.6826C49.5619 15.4605 50.2207 15.723 50.4932 16.2871L55.994 27.6546C58.6164 33.0709 56.0269 39.5686 50.3999 41.6975C44.7716 43.8276 38.5301 40.6715 36.9085 34.8767L33.5063 22.7154C33.3372 22.1122 33.6564 21.4799 34.2432 21.2578Z" fill="#F1F1F1"/>
<path d="M55.9942 27.6546L50.4934 16.2871C50.2208 15.723 49.5621 15.4605 48.9766 15.6826L43.3395 17.8165L48.9526 29.415C51.2001 34.0577 49.6151 39.4929 45.5731 42.2931C47.1505 42.4812 48.7999 42.3032 50.4 41.6987C56.027 39.5686 58.6165 33.0709 55.9942 27.6546Z" fill="#DFDFDE"/>
<path d="M34.9083 27.7311L56.7374 29.7237C57.9223 34.6251 55.324 39.8356 50.3999 41.6995C44.7717 43.8284 38.5301 40.6723 36.9085 34.8787L34.9083 27.7311Z" fill="#FFDB43"/>
<path d="M51.0437 41.4271C51.151 41.3779 51.2583 41.3287 51.3618 41.277C51.4223 41.2467 51.4804 41.2151 51.5397 41.1849C51.6343 41.1344 51.7277 41.0852 51.8211 41.0322C51.8817 40.9981 51.941 40.964 52.0003 40.9287C52.0899 40.8757 52.177 40.8214 52.264 40.7671C52.3221 40.7306 52.3801 40.6927 52.4382 40.6548C52.5253 40.5968 52.6111 40.5375 52.6956 40.4782C52.7499 40.4403 52.8029 40.4024 52.8559 40.3646C52.9468 40.2977 53.0351 40.2283 53.1234 40.1589C53.1663 40.1236 53.2118 40.0907 53.2534 40.0567C53.3821 39.9519 53.5071 39.8459 53.6282 39.7361C53.6295 39.7349 53.632 39.7324 53.6332 39.7311C53.7569 39.62 53.8768 39.5052 53.9942 39.3891C54.0333 39.35 54.0699 39.3109 54.1077 39.2718C54.186 39.1922 54.263 39.1115 54.3374 39.0295C54.3803 38.9828 54.422 38.9348 54.4649 38.8856C54.5317 38.8099 54.5974 38.7329 54.6617 38.6559C54.7046 38.6042 54.7463 38.5512 54.7879 38.4994C54.8498 38.4225 54.9103 38.343 54.9684 38.2647C55.0088 38.2117 55.0491 38.1575 55.0883 38.1032C55.1463 38.0212 55.2031 37.9391 55.2586 37.8559C55.2952 37.8029 55.3306 37.7498 55.3659 37.6968C55.4252 37.6047 55.4807 37.5126 55.5375 37.4192C55.5665 37.3725 55.5956 37.3258 55.6233 37.2791C55.7003 37.1454 55.776 37.0091 55.848 36.8715C55.8517 36.864 55.8568 36.8564 55.8606 36.8476C55.935 36.705 56.0057 36.5598 56.0726 36.4135C56.0953 36.3642 56.1167 36.3138 56.1395 36.2633C56.1824 36.1649 56.2265 36.0652 56.2669 35.9642C56.2909 35.9049 56.3136 35.8443 56.3363 35.785C56.3717 35.6929 56.407 35.5995 56.4398 35.5061C56.4613 35.443 56.4827 35.3787 56.5042 35.3143C56.5344 35.2222 56.5635 35.1301 56.5912 35.0367C56.6102 34.9723 56.6291 34.908 56.6468 34.8423C56.6733 34.7477 56.6985 34.6518 56.7212 34.5559C56.7376 34.4928 56.7528 34.4297 56.7679 34.3666C56.7906 34.2618 56.8121 34.1584 56.8323 34.0524C56.8424 33.9968 56.855 33.9413 56.8651 33.8858C56.8916 33.7369 56.9143 33.588 56.9332 33.4391C56.9357 33.4239 56.9383 33.4088 56.9395 33.3936C56.9597 33.2346 56.9761 33.0744 56.9887 32.9154C56.9938 32.8586 56.9951 32.8018 56.9988 32.7463C57.0052 32.6377 57.0115 32.5305 57.0152 32.4219C57.0178 32.3563 57.0178 32.2907 57.0178 32.2238C57.019 32.1254 57.0203 32.0257 57.0178 31.926C57.0165 31.8566 57.014 31.7872 57.0115 31.7178C57.0077 31.6206 57.0026 31.5222 56.9963 31.425C56.9913 31.3556 56.9862 31.2862 56.9799 31.2168C56.9711 31.1171 56.961 31.0174 56.9484 30.9177C56.9408 30.8508 56.9332 30.7839 56.9244 30.7171C56.9092 30.6098 56.8916 30.5025 56.8727 30.3953C56.8626 30.3372 56.8537 30.2779 56.8436 30.2199C56.8146 30.0697 56.7831 29.9195 56.7465 29.7693C56.7439 29.7542 56.7414 29.7391 56.7376 29.7239L48.7483 28.9945L48.9527 29.416C51.2002 34.0587 49.6152 39.4939 45.5732 42.2941C45.625 42.3004 45.678 42.3055 45.731 42.3105C45.8332 42.3206 45.9367 42.3294 46.0389 42.337C46.102 42.3421 46.1638 42.3458 46.2269 42.3496C46.343 42.3559 46.4604 42.3597 46.5777 42.3622C46.6295 42.3635 46.6812 42.3648 46.7342 42.3648C46.8667 42.3648 47.0005 42.3635 47.133 42.3585C47.1822 42.3559 47.2314 42.3547 47.2806 42.3521C47.4195 42.3446 47.5583 42.3357 47.6971 42.3231C47.7362 42.3193 47.7741 42.3155 47.8132 42.3118C47.9482 42.2966 48.0845 42.2815 48.2208 42.2613C48.246 42.2575 48.27 42.255 48.2952 42.2512C48.4442 42.2285 48.5943 42.202 48.7445 42.1717C48.776 42.1654 48.8076 42.1591 48.8391 42.1528C48.9906 42.1212 49.1407 42.0871 49.2909 42.048C49.3225 42.0404 49.354 42.0316 49.3868 42.024C49.5395 41.9824 49.6922 41.9395 49.8449 41.8903C49.8689 41.884 49.8916 41.8751 49.9156 41.8676C50.0771 41.8158 50.2386 41.7603 50.4002 41.6997C50.5655 41.6366 50.7283 41.5697 50.8885 41.4991C50.9415 41.4764 50.992 41.4511 51.0437 41.4271Z" fill="#F9CE16"/>
<path d="M8.10355 54.9456L1.15278 56.7476C0.89408 56.8145 0.875151 57.1754 1.12502 57.2701L13.7129 62.0339C13.964 62.1285 14.1874 61.8458 14.0385 61.6237L10.0217 55.6712L8.10355 54.9456ZM63.4598 56.7476L56.5091 54.9456L54.5909 55.6712L50.5742 61.6237C50.4253 61.8458 50.6486 62.1285 50.8997 62.0339L63.4876 57.2701C63.7375 57.1754 63.7185 56.8145 63.4598 56.7476Z" fill="#F1F1F1"/>
<path fill-rule="evenodd" clip-rule="evenodd" d="M10.2008 11.274C10.2008 11.7826 9.78945 12.194 9.28089 12.194H8.26881V13.206C8.26881 13.7146 7.85616 14.126 7.34886 14.126C6.84029 14.126 6.4289 13.7146 6.4289 13.206V12.194H5.41683C4.90826 12.194 4.49687 11.7826 4.49687 11.274C4.49687 10.7654 4.90826 10.354 5.41683 10.354H6.4289V9.34197C6.4289 8.83341 6.84029 8.42201 7.34886 8.42201C7.85616 8.42201 8.26881 8.83341 8.26881 9.34197V10.354H9.28089C9.78819 10.354 10.2008 10.7654 10.2008 11.274ZM60.1169 11.274C60.1169 11.7826 59.7042 12.194 59.1957 12.194H58.1836V13.206C58.1836 13.7146 57.7722 14.126 57.2636 14.126C56.7563 14.126 56.3437 13.7146 56.3437 13.206V12.194H55.3316C54.8243 12.194 54.4117 11.7826 54.4117 11.274C54.4117 10.7654 54.8243 10.354 55.3316 10.354H56.3437V9.34197C56.3437 8.83341 56.7563 8.42201 57.2636 8.42201C57.7722 8.42201 58.1836 8.83341 58.1836 9.34197V10.354H59.1957C59.7042 10.354 60.1169 10.7654 60.1169 11.274ZM35.1582 4.85199C35.1582 5.36055 34.7468 5.77194 34.2383 5.77194H33.2262V6.78402C33.2262 7.29258 32.8148 7.70397 32.3063 7.70397C31.7977 7.70397 31.3863 7.29258 31.3863 6.78402V5.77194H30.3742C29.8657 5.77194 29.4543 5.36055 29.4543 4.85199C29.4543 4.34342 29.8657 3.93203 30.3742 3.93203H31.3863V2.91995C31.3863 2.41139 31.7977 2 32.3063 2C32.8148 2 33.2262 2.41139 33.2262 2.91995V3.93203H34.2383C34.7468 3.93203 35.1582 4.34342 35.1582 4.85199ZM32.0185 22.9722L28.6163 35.1335C27.7721 38.1508 25.6836 40.6911 22.8884 42.1057C21.3097 42.9033 19.5745 43.3071 17.8356 43.3071C16.8336 43.3071 15.8291 43.1721 14.8536 42.9033L10.3573 54.787C10.5403 54.8551 10.6968 54.98 10.8066 55.1428L14.8221 61.0941C15.1211 61.5371 15.0997 62.1163 14.7678 62.5353C14.5306 62.8356 14.1772 62.9997 13.8125 62.9997C13.6674 62.9997 13.5197 62.9732 13.3784 62.9202L0.78929 58.1563C0.289562 57.9671 -0.0271851 57.4812 0.0018395 56.9474C0.0308641 56.4136 0.398089 55.9656 0.915484 55.8319L7.86625 54.0298C8.05554 53.9806 8.25493 53.9907 8.43791 54.0601L12.9367 42.1739C12.9052 42.1587 12.8736 42.1448 12.8421 42.1297C12.803 42.1095 12.7638 42.0893 12.7247 42.0691C12.5935 42.001 12.4622 41.9316 12.3335 41.8584C12.302 41.8407 12.2704 41.8218 12.2389 41.8041C12.1026 41.7246 11.9676 41.6426 11.8338 41.558C11.8123 41.5442 11.7896 41.5303 11.7682 41.5164C11.6218 41.4218 11.4792 41.3246 11.3391 41.2249C11.329 41.2186 11.3202 41.211 11.3101 41.2034C10.688 40.7567 10.1201 40.2519 9.61025 39.6979C9.59006 39.6765 9.57113 39.655 9.55221 39.6336C9.45251 39.5238 9.35534 39.4128 9.2607 39.2992C9.22158 39.2525 9.18498 39.2058 9.14712 39.1591C9.07393 39.0695 9.00326 38.9799 8.93385 38.8878C8.8859 38.8259 8.84047 38.7641 8.79378 38.701C8.73825 38.624 8.68399 38.5458 8.62973 38.4676C8.57799 38.3931 8.52625 38.3186 8.47703 38.2429C8.43413 38.1773 8.39374 38.1117 8.35336 38.0461C8.15019 37.7217 7.96342 37.3861 7.79306 37.0403C7.76656 36.986 7.73753 36.9318 7.7123 36.8762C7.66939 36.7854 7.62901 36.6933 7.58863 36.6011C7.55455 36.5229 7.52048 36.4459 7.48893 36.3664C7.47379 36.3311 7.45738 36.2958 7.44224 36.2604C7.3539 36.0396 7.2744 35.8162 7.20121 35.5916C7.18733 35.5474 7.17219 35.5033 7.1583 35.4591C7.12549 35.3531 7.09395 35.2446 7.06366 35.1373C7.03968 35.054 7.01823 34.9695 6.99551 34.8862C6.99299 34.871 6.9892 34.8571 6.98542 34.842C6.55383 33.1359 6.51724 31.3098 6.95513 29.5015C6.95892 29.4825 6.96649 29.4661 6.97154 29.4485C7.15704 28.6926 7.42205 27.9531 7.7653 27.2426L13.2661 15.8763C13.757 14.863 14.9192 14.3998 15.9717 14.7973L30.7049 20.3726C31.7573 20.7714 32.3214 21.8882 32.0185 22.9722ZM9.40456 56.4515L8.04923 55.9379L3.43937 57.1342L12.0685 60.3988L9.40456 56.4515ZM30.0335 22.1444L15.3016 16.5691C15.2701 16.5577 15.2385 16.5514 15.207 16.5514C15.1085 16.5514 15.0164 16.607 14.971 16.7003L9.47018 28.0679C9.3768 28.2597 9.29477 28.4541 9.21527 28.6497L12.3058 28.3682C12.8257 28.319 13.2863 28.7039 13.3342 29.2251C13.3822 29.7463 12.9986 30.2069 12.4774 30.2548L8.67011 30.6019C8.42529 32.091 8.54013 33.6305 9.02598 35.0767C9.03228 35.0982 9.03986 35.1184 9.04743 35.1386C9.08781 35.2572 9.13198 35.3745 9.17741 35.4906C9.19129 35.5285 9.20643 35.5664 9.22158 35.6042C9.26448 35.7102 9.30991 35.815 9.3566 35.9197C9.37301 35.955 9.38815 35.9916 9.40456 36.027C9.46513 36.1569 9.52823 36.2844 9.59385 36.4106C9.61909 36.4598 9.64685 36.5078 9.67209 36.5557C9.71752 36.6377 9.76169 36.7185 9.80838 36.7993C9.83993 36.8523 9.87148 36.904 9.90302 36.9557C9.95098 37.034 10.0002 37.111 10.0494 37.1879C10.0797 37.2334 10.11 37.2801 10.1403 37.3255C10.2034 37.4189 10.269 37.511 10.3346 37.6019C10.3548 37.6271 10.3725 37.6549 10.3914 37.6801C10.5782 37.93 10.7763 38.1697 10.987 38.3981C10.9908 38.4032 10.9946 38.407 10.9984 38.4108C11.1019 38.5231 11.2079 38.6329 11.3164 38.7401C11.3214 38.7452 11.3265 38.7502 11.3315 38.7553C11.7846 39.1995 12.283 39.5983 12.8206 39.9428C12.8219 39.944 12.8232 39.944 12.8257 39.9453C12.9493 40.0248 13.0755 40.1018 13.203 40.175C13.2257 40.1876 13.2484 40.2002 13.2711 40.2141C13.3797 40.2747 13.4895 40.334 13.6005 40.3908C13.6333 40.4072 13.6661 40.4236 13.6989 40.44C13.8037 40.493 13.9109 40.5434 14.0195 40.5914C14.0535 40.6078 14.0876 40.6242 14.123 40.6394C14.263 40.6999 14.4044 40.7592 14.5482 40.8135C16.9825 41.7347 19.7108 41.5896 22.0341 40.4147C24.356 39.2399 26.0912 37.1299 26.7916 34.6224L28.422 28.7986L17.25 29.8182C16.7276 29.8662 16.2683 29.4825 16.2203 28.9614C16.1723 28.4402 16.556 27.9796 17.0772 27.9329L28.9672 26.8463L30.195 22.4611C30.2316 22.3299 30.1622 22.1936 30.0335 22.1444Z" fill="#05162D"/>
<path fill-rule="evenodd" clip-rule="evenodd" d="M63.8233 58.1556L51.2341 62.9194C51.0915 62.9737 50.9451 63.0002 50.8 63.0002C50.4353 63.0002 50.082 62.8361 49.8447 62.5358C49.5128 62.1168 49.4901 61.5376 49.7892 61.0946L53.806 55.1421C53.9145 54.9805 54.0722 54.8556 54.2552 54.7862L49.7589 42.9037C48.7822 43.1725 47.7789 43.3063 46.777 43.3063C45.3409 43.3063 43.9073 43.0312 42.5633 42.486C42.2794 42.3699 41.9993 42.2438 41.7241 42.1049C39.5397 41.0007 37.7882 39.2088 36.7231 37.0382C36.4253 36.43 36.1804 35.7927 35.9962 35.1327L33.996 27.9863L32.594 22.9714C32.2911 21.8887 32.8552 20.7718 33.9077 20.3731L48.6408 14.7978C49.6933 14.4003 50.8556 14.8634 51.3464 15.8755L56.8472 27.2431C57.1905 27.9535 57.4555 28.693 57.641 29.4489C57.6461 29.4666 57.6536 29.483 57.6574 29.5007C58.094 31.309 58.0587 33.1338 57.6284 34.8387C57.6246 34.8551 57.6196 34.8715 57.6158 34.8879C57.5943 34.9712 57.5729 35.0532 57.5501 35.1352C57.5199 35.245 57.487 35.3536 57.453 35.4621C57.4391 35.5037 57.4252 35.5466 57.4113 35.5895C57.3381 35.8154 57.2586 36.0388 57.1703 36.2609C57.1552 36.2975 57.1388 36.3328 57.1236 36.3694C57.0921 36.4464 57.058 36.5221 57.0252 36.5978C56.9835 36.6925 56.9432 36.7859 56.9002 36.878C56.875 36.9297 56.8485 36.9815 56.8233 37.0332C56.6516 37.384 56.4624 37.7235 56.2567 38.0516C56.2175 38.1147 56.1784 38.179 56.1368 38.2421C56.0863 38.3191 56.0346 38.3948 55.9816 38.4706C55.9286 38.5475 55.8743 38.6245 55.82 38.7002C55.7733 38.7646 55.7254 38.8277 55.6787 38.8895C55.6093 38.9804 55.5386 39.07 55.4667 39.1583C55.4288 39.2063 55.391 39.2542 55.3518 39.3009C55.2572 39.4132 55.16 39.523 55.0616 39.6328C55.0414 39.6543 55.0225 39.677 55.0023 39.6984C54.4925 40.2537 53.9246 40.7585 53.3037 41.2039C53.2936 41.2115 53.2823 41.2191 53.2722 41.2266C53.1334 41.3263 52.9908 41.4222 52.8456 41.5156C52.8229 41.5308 52.8002 41.5446 52.7775 41.5598C52.645 41.6443 52.5112 41.7251 52.3737 41.8046C52.3421 41.8223 52.3106 41.8412 52.2778 41.8601C52.1503 41.9321 52.0191 42.0015 51.8878 42.0696C51.8487 42.0898 51.8096 42.11 51.7705 42.1302C51.7402 42.1453 51.7074 42.1592 51.6771 42.1743L56.1734 54.0606C56.3576 53.9912 56.557 53.9811 56.7463 54.029L63.6971 55.8323C64.2145 55.9661 64.5817 56.4141 64.6107 56.9479C64.6397 57.4817 64.323 57.9675 63.8233 58.1556ZM51.4083 40.1754C51.537 40.1022 51.6632 40.0265 51.7869 39.947C51.7894 39.9458 51.7906 39.9445 51.7919 39.9432C52.3282 39.5987 52.8267 39.2 53.281 38.7558C53.286 38.7507 53.2911 38.7457 53.2961 38.7406C53.4047 38.6333 53.5107 38.5236 53.6142 38.4112C53.6179 38.4075 53.6217 38.4037 53.6255 38.3999C53.835 38.1702 54.0344 37.9304 54.2199 37.6806C54.2401 37.6553 54.2577 37.6288 54.2767 37.6023C54.3436 37.5115 54.4079 37.4194 54.4723 37.326C54.5026 37.2805 54.5328 37.2351 54.5631 37.1884C54.6123 37.1127 54.6616 37.0345 54.7083 36.9562C54.7411 36.9045 54.7726 36.8527 54.8029 36.7997C54.8496 36.7202 54.895 36.6382 54.9392 36.5562C54.9657 36.5082 54.9935 36.4603 55.0187 36.4123C55.0843 36.2861 55.1474 36.1574 55.208 36.0274C55.2244 35.9921 55.2395 35.9568 55.2559 35.9202C55.3026 35.8154 55.3481 35.7107 55.391 35.6047C55.4061 35.5668 55.4213 35.529 55.4351 35.4911C55.4806 35.375 55.5247 35.2577 55.5651 35.1403C55.5727 35.1188 55.579 35.0986 55.5866 35.0785C56.0712 33.631 56.1873 32.0914 55.9412 30.6024L44.0928 29.5209C43.5716 29.4729 43.188 29.0123 43.236 28.4911C43.2839 27.9712 43.7433 27.5863 44.2657 27.6343L55.3973 28.6514C55.3178 28.4545 55.2345 28.2602 55.1424 28.0684L49.6416 16.7021C49.581 16.5784 49.4397 16.5216 49.3109 16.5696L34.579 22.1448C34.4503 22.194 34.3809 22.3303 34.4188 22.4616L35.6454 26.8468L39.2684 27.1787C39.7896 27.2254 40.1732 27.686 40.1265 28.2072C40.0786 28.7284 39.6167 29.1133 39.0968 29.064L36.1918 28.799L37.821 34.6229C38.5226 37.1304 40.2565 39.2403 42.5785 40.4152C44.9017 41.5901 47.63 41.7352 50.0643 40.814C50.2082 40.7597 50.3495 40.7004 50.4896 40.6398C50.5249 40.6247 50.559 40.6083 50.5943 40.5919C50.7016 40.5439 50.8089 40.4934 50.9136 40.4404C50.9477 40.424 50.9792 40.4076 51.012 40.3912C51.1231 40.3344 51.2329 40.2751 51.3414 40.2146C51.3641 40.2007 51.3868 40.1881 51.4083 40.1754ZM61.1732 57.1347L56.5633 55.9383L55.2067 56.4519L52.544 60.3993L61.1732 57.1347Z" fill="#05162D"/>
</svg>
