<svg width="24" height="20" viewBox="0 0 24 20" fill="none" xmlns="http://www.w3.org/2000/svg">
<path d="M23.5665 3.34187L21.4607 1.2361C21.172 0.947144 20.8208 0.802612 20.408 0.802612C19.9949 0.802612 19.6437 0.947144 19.355 1.2361L9.19742 11.409L4.64513 6.84121C4.35607 6.55215 4.00513 6.40778 3.59236 6.40778C3.17932 6.40778 2.82837 6.55215 2.53931 6.84121L0.433541 8.94704C0.144477 9.23605 0 9.5871 0 10.0001C0 10.4127 0.144477 10.7641 0.433541 11.0531L6.0386 16.658L8.14453 18.7638C8.43343 19.053 8.78448 19.1973 9.19742 19.1973C9.61019 19.1973 9.96124 19.0526 10.2503 18.7638L12.3562 16.658L23.5665 5.4478C23.8553 5.15874 24 4.80774 24 4.39475C24.0002 3.98198 23.8553 3.63093 23.5665 3.34187Z" fill="#05172D"/>
</svg>
