<svg width="24" height="24" viewBox="0 0 24 24" fill="none" xmlns="http://www.w3.org/2000/svg">
<path d="M16.2188 9.1875C15.8308 9.1875 15.5156 9.50269 15.5156 9.89062V14.1094C15.5156 14.4973 15.8308 14.8125 16.2188 14.8125H16.9219V9.1875H16.2188Z" fill="#05172D"/>
<path d="M21.8906 0.75H2.10938C0.946219 0.75 0 1.69622 0 2.85937V16.9219C0 18.085 0.946219 19.0312 2.10938 19.0312H4.26562V22.5469C4.26562 23.1739 5.02612 23.4838 5.46586 23.044L9.47859 19.0312H21.8906C23.0538 19.0312 24 18.085 24 16.9219V2.85937C24 1.69622 23.0538 0.75 21.8906 0.75ZM18.3281 15.5156C18.3281 15.9043 18.0136 16.2187 17.625 16.2187H16.2188C15.6317 16.2187 15.101 15.9768 14.7182 15.5885L13.8766 15.8768C13.214 16.1034 12.5233 16.2188 11.8243 16.2188H8.58262C7.58011 16.2188 6.71016 15.5054 6.51445 14.5228L5.67056 10.3047C5.40863 9.00089 6.40884 7.7813 7.73873 7.7813H9.1875V6.37505C9.1875 4.82391 10.4489 3.56255 12 3.56255C12.7752 3.56255 13.4062 4.19358 13.4062 4.9688V6.24937C13.4062 6.969 13.7667 7.63158 14.371 8.02162L14.8284 8.31689C15.2005 7.98773 15.684 7.7813 16.2188 7.7813H17.625C18.0136 7.7813 18.3281 8.09578 18.3281 8.48442V15.5156Z" fill="#05172D"/>
<path d="M14.1093 9.89063C14.1093 9.77358 14.1254 9.6607 14.1439 9.54877L13.608 9.20259C12.6014 8.55234 11.9999 7.44825 11.9999 6.24933V4.96875C11.2247 4.96875 10.5936 5.59978 10.5936 6.375V8.48438C10.5936 8.87302 10.2792 9.1875 9.89051 9.1875H7.73857C7.29443 9.1875 6.96265 9.59302 7.04918 10.0286L7.89307 14.2474C7.95832 14.5749 8.24806 14.8125 8.58246 14.8125H11.8241C12.3679 14.8125 12.9049 14.7233 13.4206 14.5461L14.1289 14.3034C14.1229 14.2386 14.1093 14.1758 14.1093 14.1094V9.89063Z" fill="#05172D"/>
</svg>
