<svg width="24" height="22" viewBox="0 0 24 22" fill="none" xmlns="http://www.w3.org/2000/svg">
<path d="M3.03478 0.854064C2.68754 0.507067 2.26849 0.333252 1.77789 0.333252C1.28709 0.333252 0.868101 0.507212 0.520812 0.854064C0.173717 1.20135 0 1.6204 0 2.11114C0 2.77775 0.296161 3.28708 0.888824 3.63889V21.2222C0.888824 21.3427 0.932703 21.4469 1.02085 21.5348C1.10876 21.6227 1.21296 21.6666 1.33331 21.6666H2.22213C2.34248 21.6666 2.44664 21.623 2.53459 21.5348C2.62259 21.4469 2.66652 21.3427 2.66652 21.2222V3.63889C3.25928 3.28689 3.55534 2.7777 3.55534 2.11114C3.55534 1.62054 3.38182 1.20155 3.03478 0.854064Z" fill="#05172D"/>
<path d="M23.7363 2.37529C23.5602 2.19933 23.3518 2.11133 23.111 2.11133C22.9908 2.11133 22.7384 2.20848 22.3542 2.40301C21.97 2.59755 21.5625 2.81505 21.1319 3.05576C20.7018 3.29651 20.192 3.51396 19.6044 3.7085C19.0164 3.90303 18.4723 4.00018 17.9726 4.00018C17.5094 4.00018 17.102 3.91218 16.7499 3.73632C15.5833 3.18997 14.5698 2.78251 13.7085 2.51398C12.8474 2.2455 11.9216 2.11133 10.9308 2.11133C9.21773 2.11133 7.2687 2.66678 5.08358 3.77787C4.54638 4.0464 4.1807 4.24551 3.98626 4.3751C3.69915 4.58817 3.55554 4.84264 3.55554 5.139V15.4444C3.55554 15.6851 3.64369 15.8937 3.81965 16.0694C3.99536 16.2455 4.20386 16.3334 4.44461 16.3334C4.59269 16.3334 4.74525 16.2918 4.90281 16.2086C7.42135 14.8566 9.56949 14.1807 11.3473 14.1807C12.0231 14.1807 12.6828 14.2826 13.3261 14.4862C13.9697 14.6899 14.5045 14.9122 14.9303 15.1527C15.3565 15.3934 15.8586 15.6159 16.4373 15.8196C17.0163 16.0229 17.588 16.1249 18.1527 16.1249C19.5787 16.1249 21.2871 15.5881 23.2777 14.5138C23.5279 14.3843 23.7105 14.2571 23.8262 14.132C23.9421 14.007 24 13.8289 24 13.5972V2.99996C24.0001 2.7593 23.9121 2.55114 23.7363 2.37529Z" fill="#05172D"/>
</svg>
