<svg width="24" height="24" viewBox="0 0 24 24" fill="none" xmlns="http://www.w3.org/2000/svg">
<g clip-path="url(#clip0)">
<path d="M20.4858 3.51445C15.7995 -1.17139 8.20122 -1.17191 3.51433 3.51445C-1.17203 8.20082 -1.17151 15.7991 3.51433 20.486C8.2007 25.1713 15.7989 25.1718 20.4858 20.486C25.1717 15.7991 25.1712 8.20134 20.4858 3.51445ZM13.5648 17.2177C13.5648 18.0822 12.8641 18.783 11.9996 18.783C11.135 18.783 10.4343 18.0822 10.4343 17.2177V10.9567C10.4343 10.0922 11.135 9.39145 11.9996 9.39145C12.8641 9.39145 13.5648 10.0922 13.5648 10.9567V17.2177ZM11.9719 8.28117C11.0703 8.28117 10.4693 7.64254 10.488 6.85418C10.4693 6.02773 11.0703 5.40841 11.9902 5.40841C12.9105 5.40841 13.4928 6.02825 13.5121 6.85418C13.5116 7.64254 12.9111 8.28117 11.9719 8.28117Z" fill="#05172D"/>
</g>
<defs>
<clipPath id="clip0">
<rect width="24" height="24" fill="white"/>
</clipPath>
</defs>
</svg>
