<svg width="24" height="24" viewBox="0 0 24 24" fill="none" xmlns="http://www.w3.org/2000/svg">
<path d="M16.1376 12.4163C14.1098 12.4163 12.4601 14.066 12.4601 16.0938C12.4601 18.1216 14.1098 19.7714 16.1376 19.7714C18.1654 19.7714 19.8151 18.1216 19.8151 16.0938C19.8151 14.066 18.1654 12.4163 16.1376 12.4163Z" fill="#05172D"/>
<path d="M8.56604 6.18188C7.29039 6.18188 6.25256 7.21971 6.25256 8.49537C6.25256 9.77102 7.29039 10.8088 8.56604 10.8088C9.84169 10.8088 10.8795 9.77102 10.8795 8.49537C10.8795 7.21971 9.84175 6.18188 8.56604 6.18188Z" fill="#05172D"/>
<path d="M16.1377 10.874C16.3674 10.874 16.5937 10.889 16.8157 10.918C17.0216 10.1833 17.1321 9.40924 17.1321 8.6097C17.1321 3.88639 13.2894 0.0437012 8.56605 0.0437012C3.84269 0.0436498 0 3.88634 0 8.6097C0 10.6111 0.689983 12.4542 1.84451 13.9141L8.56605 22.3649L11.5602 18.6004C11.1509 17.856 10.9178 17.0017 10.9178 16.0939C10.9178 13.2156 13.2594 10.874 16.1377 10.874ZM8.56605 12.3512C6.43996 12.3512 4.71025 10.6215 4.71025 8.49542C4.71025 6.36933 6.43996 4.63961 8.56605 4.63961C10.6921 4.63961 12.4219 6.36933 12.4219 8.49542C12.4219 10.6215 10.6922 12.3512 8.56605 12.3512Z" fill="#05172D"/>
<path d="M20.3319 19.1976C20.0241 19.6126 19.6563 19.9804 19.2413 20.2882L22.9094 23.9563L24 22.8657L20.3319 19.1976Z" fill="#05172D"/>
</svg>
