<svg width="24" height="24" viewBox="0 0 24 24" fill="none" xmlns="http://www.w3.org/2000/svg">
<path fill-rule="evenodd" clip-rule="evenodd" d="M23.9248 10.6675C23.8868 10.3302 23.4935 10.0767 23.1533 10.0767C22.0536 10.0767 21.0778 9.43094 20.6686 8.43233C20.2505 7.40952 20.5201 6.21668 21.3396 5.46489C21.5976 5.22906 21.629 4.83427 21.4126 4.56004C20.8497 3.8453 20.21 3.19968 19.5115 2.64015C19.238 2.42065 18.8367 2.45119 18.5995 2.71382C17.8843 3.50597 16.5995 3.80039 15.6066 3.38614C14.5735 2.95153 13.922 1.90461 13.9857 0.780798C14.0067 0.427806 13.7487 0.120891 13.3968 0.0799036C12.5004 -0.0237706 11.5962 -0.0269853 10.6972 0.0727598C10.3493 0.111158 10.0913 0.410839 10.103 0.759367C10.1421 1.8721 9.48272 2.90072 8.45982 3.3197C7.47889 3.72038 6.2031 3.42846 5.48926 2.64336C5.25333 2.38476 4.85855 2.35297 4.58369 2.56719C3.86449 3.13146 3.21039 3.77762 2.64237 4.48646C2.42082 4.76203 2.45342 5.16146 2.71399 5.39854C3.54918 6.15489 3.81886 7.35808 3.38497 8.39268C2.97072 9.37906 1.94647 10.0148 0.773911 10.0148C0.393415 10.0025 0.122398 10.2579 0.0807853 10.6039C-0.0247642 11.5054 -0.0260143 12.424 0.0756061 13.3329C0.11329 13.6717 0.51861 13.923 0.862494 13.923C1.90745 13.8963 2.91071 14.5432 3.33157 15.5674C3.75108 16.5902 3.48141 17.7823 2.66059 18.5347C2.40386 18.7705 2.37126 19.1647 2.58763 19.4389C3.1452 20.1491 3.78502 20.7954 4.486 21.3595C4.76095 21.5811 5.161 21.5498 5.39934 21.2872C6.11729 20.4931 7.40201 20.1992 8.39089 20.6143C9.42665 21.0475 10.0782 22.0944 10.0144 23.2188C9.99359 23.572 10.2528 23.8794 10.6033 23.9198C11.0619 23.9733 11.5232 24 11.9857 24C12.4248 24 12.864 23.9759 13.303 23.927C13.651 23.8886 13.9088 23.5889 13.8971 23.2398C13.8569 22.1277 14.5174 21.0991 15.539 20.6808C16.5265 20.2774 17.7969 20.5727 18.5109 21.357C18.7481 21.615 19.1401 21.6462 19.4165 21.4327C20.1344 20.8698 20.7871 20.2241 21.3578 19.5133C21.5793 19.2384 21.548 18.8383 21.2861 18.6013C20.4509 17.845 20.1799 16.6416 20.6138 15.6077C21.0217 14.6345 22.0079 13.981 23.0687 13.981L23.2171 13.9848C23.5612 14.0128 23.8777 13.7478 23.9194 13.3965C24.0252 12.4942 24.0264 11.5764 23.9248 10.6675ZM12.0192 16.0281C9.81196 16.0281 8.01655 14.2326 8.01655 12.0254C8.01655 9.81823 9.81196 8.02272 12.0192 8.02272C14.2264 8.02272 16.0218 9.81823 16.0218 12.0254C16.0218 14.2326 14.2264 16.0281 12.0192 16.0281Z" fill="#05172D"/>
</svg>
