<svg width="44" height="34" viewBox="0 0 44 34" fill="none" xmlns="http://www.w3.org/2000/svg">
<path d="M13.34 16.63C16.95 16.63 19.88 12.91 19.88 8.31C19.88 3.72 18.92 0 13.34 0C7.75998 0 6.78998 3.72 6.78998 8.31C6.78998 12.91 9.71998 16.63 13.34 16.63ZM0.97998 29.32C0.97998 29.04 0.97998 29.24 0.97998 29.32V29.32ZM25.69 29.54C25.69 29.46 25.69 29.01 25.69 29.54V29.54ZM25.68 28.99C25.55 20.99 24.56 18.71 16.92 17.27C16.92 17.27 15.84 18.7 13.34 18.7C10.83 18.7 9.74998 17.27 9.74998 17.27C2.19998 18.69 1.13998 20.94 0.99998 28.73C0.98998 29.36 0.97998 29.4 0.97998 29.32C0.97998 29.46 0.97998 29.72 0.97998 30.16C0.97998 30.16 2.79998 34 13.34 34C23.87 34 25.69 30.16 25.69 30.16C25.69 29.88 25.69 29.68 25.69 29.54C25.69 29.59 25.68 29.5 25.68 28.99ZM24.86 2.97H43.98V7H24.86V2.97ZM29.67 19.03H43.98V23H29.67V19.03ZM24.86 11H43.98V14.97H24.86V11Z" fill="#678B05"/>
</svg>
