<svg width="38" height="37" viewBox="0 0 38 37" fill="none" xmlns="http://www.w3.org/2000/svg">
<path d="M37.5084 17.5739C38.1884 16.8239 38.1284 15.6939 37.3584 15.0339L20.3784 0.483926C19.6084 -0.176074 18.3784 -0.156074 17.6184 0.513926L0.588424 15.8039C-0.161576 16.4839 -0.201576 17.6239 0.508424 18.3439L0.928424 18.7739C1.63842 19.5039 2.78842 19.5839 3.48842 18.9739L4.75842 17.8539V34.1939C4.75842 35.2039 5.58842 36.0139 6.61842 36.0139H13.2584C14.2784 36.0139 15.1084 35.2039 15.1084 34.1939V22.7639H23.5784V34.1939C23.5584 35.2039 24.2884 36.0139 25.3184 36.0139H32.3484C33.3784 36.0139 34.2084 35.2039 34.2084 34.1939V18.0839C34.2084 18.0839 34.5584 18.3839 34.9884 18.7539C35.4184 19.1339 36.3284 18.8339 37.0184 18.0939L37.5084 17.5739Z" fill="#678B05"/>
</svg>
