<svg width="29" height="33" viewBox="0 0 29 33" fill="none" xmlns="http://www.w3.org/2000/svg">
<path d="M28.88 27.83L26.48 23.9C25.37 22.08 24.78 20 24.78 17.88V14.44C24.78 10.09 21.82 6.4 17.78 5.22V2.75C17.78 1.23 16.53 0 14.98 0C13.44 0 12.19 1.23 12.19 2.75V5.22C8.14 6.4 5.19 10.09 5.19 14.44V17.88C5.19 20 4.6 22.08 3.49 23.9L1.09 27.83C0.959998 28.05 0.959998 28.31 1.08 28.53C1.21 28.74 1.44 28.87 1.69 28.87H28.28C28.53 28.87 28.76 28.74 28.89 28.53C29.01 28.31 29.01 28.05 28.88 27.83ZM10.58 30.25C11.37 31.87 13.04 33 14.98 33C16.93 33 18.6 31.87 19.39 30.25H10.58Z" fill="#828282"/>
</svg>
