<svg width="52" height="13" viewBox="0 0 52 13" fill="none" xmlns="http://www.w3.org/2000/svg">
<path fill-rule="evenodd" clip-rule="evenodd" d="M7.14715 0.0909424C3.69102 0.0909424 0.863281 2.97544 0.863281 6.50094C0.863281 10.0264 3.69102 12.9109 7.14715 12.9109C10.6033 12.9109 13.431 10.0264 13.431 6.50094C13.431 2.97544 10.6033 0.0909424 7.14715 0.0909424ZM44.8493 0.0909424C41.3932 0.0909424 38.5654 2.97544 38.5654 6.50094C38.5654 10.0264 41.3932 12.9109 44.8493 12.9109C48.3054 12.9109 51.1332 10.0264 51.1332 6.50094C51.1332 2.97544 48.3054 0.0909424 44.8493 0.0909424ZM19.7148 6.50094C19.7148 2.97544 22.5426 0.0909424 25.9987 0.0909424C29.4548 0.0909424 32.2826 2.97544 32.2826 6.50094C32.2826 10.0264 29.4548 12.9109 25.9987 12.9109C22.5426 12.9109 19.7148 10.0264 19.7148 6.50094Z" fill="#678B05"/>
</svg>
