<svg width="36" height="29" viewBox="0 0 36 29" fill="none" xmlns="http://www.w3.org/2000/svg">
<path d="M33.47 7.42H32.49V18.11C32.49 19.78 31.51 21.28 29.54 21.28H10.25V21.79C10.25 23.26 11.95 24.75 13.69 24.75H28.44L34.08 28.02L33.26 24.75H33.47C35.21 24.75 36 23.26 36 21.79V9.96C36 8.49 35.21 7.42 33.47 7.42ZM26.66 0H4.26002C2.29002 0 0.0200195 1.72 0.0200195 3.39V16.79C0.0200195 18.32 1.94002 19.43 3.78002 19.6L2.58002 24.09L10.27 19.63H26.66C28.63 19.63 30.45 18.45 30.45 16.79V5.95V3.39C30.45 1.72 28.63 0 26.66 0ZM7.67002 11.31C6.56002 11.31 5.65002 10.41 5.65002 9.31C5.65002 8.21 6.56002 7.31 7.67002 7.31C8.79002 7.31 9.70002 8.21 9.70002 9.31C9.70002 10.41 8.79002 11.31 7.67002 11.31ZM15.23 11.31C14.12 11.31 13.21 10.41 13.21 9.31C13.21 8.21 14.12 7.31 15.23 7.31C16.35 7.31 17.26 8.21 17.26 9.31C17.26 10.41 16.35 11.31 15.23 11.31ZM22.79 11.31C21.68 11.31 20.77 10.41 20.77 9.31C20.77 8.21 21.68 7.31 22.79 7.31C23.91 7.31 24.82 8.21 24.82 9.31C24.82 10.41 23.91 11.31 22.79 11.31Z" fill="#828282"/>
</svg>
