<svg width="50" height="51" viewBox="0 0 50 51" fill="none" xmlns="http://www.w3.org/2000/svg">
<path d="M10.3201 21.9114C10.2301 21.1374 9.9421 20.4174 9.5281 19.8054L46.8961 7.49344L44.9341 1.69744C44.6461 0.85144 43.7281 0.40144 42.8641 0.68944L2.2381 14.0814C1.3741 14.3514 0.924098 15.2694 1.1941 16.1154L2.1661 18.9594C1.1941 19.8234 0.600098 21.0834 0.600098 22.4874C0.600098 24.2874 1.6081 25.8534 3.1021 26.6814V49.3974C3.1021 50.2794 3.8221 50.9994 4.7221 50.9994H47.5621C48.4621 50.9994 49.2001 50.2794 49.2001 49.3974V21.9114H10.3201ZM34.1341 5.45944L39.0661 3.82144L37.8781 8.57344L32.9461 10.1934L34.1341 5.45944ZM21.9121 9.47344L26.8621 7.85344L25.6561 12.6054L20.7241 14.2254L21.9121 9.47344ZM5.4781 24.9354C4.1101 24.9354 2.9941 23.8374 2.9941 22.4874C2.9941 21.1194 4.1101 20.0214 5.4781 20.0214C6.8461 20.0214 7.9621 21.1194 7.9621 22.4874C7.9621 23.8374 6.8461 24.9354 5.4781 24.9354ZM9.6901 13.5054L14.6401 11.8854L13.4521 16.6194L8.5021 18.2574L9.6901 13.5054ZM14.5501 27.3294H9.3301L11.9941 23.2074H17.1961L14.5501 27.3294ZM24.8641 23.2074H30.0841L27.4381 27.3294H22.2181L24.8641 23.2074ZM23.5861 43.1694V32.2794L32.3881 37.7334L23.5861 43.1694ZM40.3081 27.3294H35.1061L37.7521 23.2074H42.9721L40.3081 27.3294Z" fill="white"/>
</svg>
