<svg width="147" height="115" viewBox="0 0 147 115" fill="none" xmlns="http://www.w3.org/2000/svg">
<ellipse cx="73.8345" cy="109.758" rx="73.1655" ry="4.26207" fill="#E1E1E1"/>
<g clip-path="url(#clip0)">
<path d="M63.8592 37.4685H35.3281C33.3347 37.4685 31.7188 35.8526 31.7188 33.8592V5.3281C31.7188 3.33471 33.3347 1.71875 35.3281 1.71875H63.8592C65.8526 1.71875 67.4685 3.33471 67.4685 5.3281V33.8592C67.4685 35.8526 65.8526 37.4685 63.8592 37.4685Z" fill="#CCCCCC"/>
<path d="M107.859 37.4685H79.3281C77.3347 37.4685 75.7188 35.8526 75.7188 33.8592V5.3281C75.7188 3.33471 77.3347 1.71875 79.3281 1.71875H107.859C109.853 1.71875 111.469 3.33471 111.469 5.3281V33.8592C111.469 35.8526 109.853 37.4685 107.859 37.4685Z" fill="white"/>
<path d="M112.187 48.3724C110.71 48.3724 109.416 49.1546 108.696 50.3269L108.093 50.0951V49.4497C108.093 47.1883 106.259 45.3551 103.998 45.3551C101.831 45.3551 100.058 47.039 99.9141 49.1695L99.893 49.1702C99.7493 47.0393 97.9762 45.3551 95.8091 45.3551C93.5477 45.3551 91.7145 47.1883 91.7145 49.4497V32.0775C91.7145 29.8162 89.8813 27.983 87.62 27.983C85.3586 27.983 83.5254 29.8162 83.5254 32.0775V58.7582L83.5201 58.7642L83.5192 54.3046L77.3034 63.4165C75.6493 65.8411 75.3994 68.9593 76.646 71.6166L83.5256 86.2807H112.075L114.477 78.621C115.673 74.8068 116.281 70.8329 116.281 66.8354V52.4669C116.281 50.2056 114.448 48.3724 112.187 48.3724Z" fill="#EBEBEB"/>
<path d="M112.186 46.6537C111.185 46.6537 110.242 46.908 109.419 47.3558C108.576 45.1822 106.465 43.6364 103.997 43.6364C102.402 43.6364 100.954 44.283 99.9028 45.3275C98.8513 44.283 97.4041 43.6364 95.8084 43.6364C94.9623 43.6364 94.1586 43.8196 93.4328 44.146V39.179C93.4857 39.184 93.5393 39.1871 93.5936 39.1871H107.859C110.797 39.1871 113.187 36.797 113.187 33.859V26.4683C113.187 25.5192 112.418 24.7495 111.469 24.7495C110.519 24.7495 109.75 25.5192 109.75 26.4683V33.8592C109.75 34.9016 108.902 35.7498 107.859 35.7498H93.5936C93.5393 35.7498 93.4859 35.7531 93.4328 35.7579V32.0774C93.4328 28.8721 90.8249 26.2642 87.6195 26.2642C84.4142 26.2642 81.8063 28.8721 81.8063 32.0774V35.7498H79.3281C78.2857 35.7498 77.4375 34.9016 77.4375 33.8592V5.32809C77.4375 4.28568 78.2857 3.43748 79.3281 3.43748H107.859C108.902 3.43748 109.75 4.28568 109.75 5.32809V12.7187C109.75 13.6678 110.519 14.4374 111.469 14.4374C112.418 14.4374 113.187 13.6678 113.187 12.7187V5.32809C113.187 2.39008 110.797 0 107.859 0H79.3281C76.3901 0 74 2.39008 74 5.32809V33.8592C74 36.7972 76.3901 39.1873 79.3281 39.1873H81.8063V53.7653L75.8832 62.4482C73.8958 65.3613 73.592 69.1544 75.0895 72.3467L81.9689 87.0107C82.2615 87.6341 82.8804 87.9998 83.5263 87.9998C83.7707 87.9998 84.0191 87.9474 84.255 87.8369C85.1144 87.4337 85.4841 86.4102 85.0812 85.5508L78.2018 70.8869C77.218 68.79 77.4177 66.2987 78.7229 64.3854L81.8063 59.8653V63.1147C81.8063 64.0638 82.576 64.8335 83.5251 64.8335C84.4742 64.8335 85.2438 64.0638 85.2438 63.1147V32.0775C85.2438 30.7675 86.3094 29.7019 87.6195 29.7019C88.9295 29.7019 89.9953 30.7675 89.9953 32.0775V57.4645C89.9953 58.4136 90.7649 59.1833 91.714 59.1833C92.6631 59.1833 93.4328 58.4136 93.4328 57.4645V49.4497C93.4328 48.1397 94.4984 47.0741 95.8084 47.0741C97.1184 47.0741 98.184 48.1397 98.184 49.4497V57.4645C98.184 58.4136 98.9537 59.1833 99.9028 59.1833C100.852 59.1833 101.622 58.4136 101.622 57.4645V49.4497C101.622 48.1397 102.687 47.0741 103.997 47.0741C105.307 47.0741 106.373 48.1397 106.373 49.4497V57.4645C106.373 58.4136 107.143 59.1833 108.092 59.1833C109.041 59.1833 109.81 58.4136 109.81 57.4645V52.4669C109.81 51.1569 110.876 50.0913 112.186 50.0913C113.496 50.0913 114.562 51.1569 114.562 52.4669V66.8356C114.562 70.6631 113.981 74.4551 112.836 78.1068L110.434 85.7665C110.15 86.6723 110.654 87.6368 111.56 87.9208C111.731 87.9746 111.904 88 112.075 88C112.806 87.9998 113.484 87.5296 113.714 86.795L116.116 79.1353C117.366 75.1502 117.999 71.012 117.999 66.8354V52.4668C117.999 49.2615 115.392 46.6537 112.186 46.6537Z" fill="#666666"/>
<path d="M63.8602 0H35.3291C32.3911 0 30.001 2.39008 30.001 5.32809V33.8592C30.001 36.7972 32.3911 39.1873 35.3291 39.1873H42.7197C43.6687 39.1873 44.4384 38.4176 44.4384 37.4685C44.4384 36.5194 43.6687 35.7498 42.7197 35.7498H35.3291C34.2867 35.7498 33.4385 34.9016 33.4385 33.8592V5.32809C33.4385 4.28568 34.2867 3.43748 35.3291 3.43748H63.8602C64.9026 3.43748 65.7508 4.28568 65.7508 5.32809V33.8592C65.7508 34.9016 64.9026 35.7498 63.8602 35.7498H56.4696C55.5205 35.7498 54.7508 36.5194 54.7508 37.4685C54.7508 38.4176 55.5205 39.1873 56.4696 39.1873H63.8602C66.7982 39.1873 69.1882 36.7972 69.1882 33.8592V5.32809C69.1882 2.39008 66.7982 0 63.8602 0Z" fill="#666666"/>
<path d="M56.8456 26.8452C57.5167 26.174 57.5167 25.0857 56.8456 24.4143L52.0247 19.5938L56.8456 14.773C57.5167 14.1018 57.5167 13.0135 56.8456 12.3422C56.1744 11.6714 55.0864 11.671 54.4147 12.3422L49.5938 17.1629L44.7731 12.3422C44.1017 11.6712 43.0138 11.6712 42.3422 12.3422C41.6711 13.0134 41.6711 14.1017 42.3422 14.773L47.1632 19.5938L42.3422 24.4145C41.6711 25.0857 41.6711 26.174 42.3422 26.8453C42.6779 27.1808 43.1177 27.3488 43.5576 27.3488C43.9974 27.3488 44.4372 27.1808 44.7729 26.8453L49.5938 22.0246L54.4147 26.8453C54.7504 27.1808 55.1902 27.3488 55.6301 27.3488C56.0699 27.3488 56.5099 27.1808 56.8456 26.8452Z" fill="#666666"/>
<path d="M101.231 11.2146L92.6659 19.7797L89.07 16.1837C88.3986 15.5127 87.3106 15.5127 86.6391 16.1837C85.9679 16.8549 85.9679 17.9432 86.6391 18.6145L91.4504 23.4258C91.7861 23.7613 92.2259 23.9292 92.6657 23.9292C93.1056 23.9292 93.5454 23.7613 93.8811 23.4258L103.661 13.6454C104.333 12.9743 104.333 11.886 103.661 11.2146C102.99 10.5436 101.902 10.5436 101.231 11.2146Z" fill="#666666"/>
<path d="M49.5938 35.7491C49.1417 35.7491 48.6983 35.933 48.3786 36.2529C48.0589 36.5724 47.875 37.0158 47.875 37.4679C47.875 37.9199 48.0587 38.3633 48.3786 38.683C48.6983 39.0044 49.1417 39.1866 49.5938 39.1866C50.0458 39.1866 50.4892 39.0044 50.8087 38.683C51.1284 38.3633 51.3125 37.9199 51.3125 37.4679C51.3125 37.0158 51.1286 36.5724 50.8087 36.2529C50.4892 35.933 50.0458 35.7491 49.5938 35.7491Z" fill="#666666"/>
<path d="M111.469 17.8742C111.017 17.8742 110.573 18.0581 110.254 18.378C109.934 18.6975 109.75 19.1409 109.75 19.593C109.75 20.0469 109.934 20.4884 110.254 20.8081C110.573 21.1295 111.017 21.3117 111.469 21.3117C111.921 21.3117 112.364 21.1295 112.684 20.8081C113.003 20.4884 113.188 20.045 113.188 19.593C113.188 19.1409 113.004 18.6975 112.684 18.378C112.364 18.0581 111.921 17.8742 111.469 17.8742Z" fill="#666666"/>
</g>
<defs>
<clipPath id="clip0">
<rect x="30" width="88" height="88" fill="white"/>
</clipPath>
</defs>
</svg>
