<svg width="147" height="115" viewBox="0 0 147 115" fill="none" xmlns="http://www.w3.org/2000/svg">
<ellipse cx="73.8345" cy="109.758" rx="73.1655" ry="4.26207" fill="#E1E1E1"/>
<g clip-path="url(#clip0)">
<path d="M105.948 42.4162V81.6561C105.948 85.1537 103.102 88.0002 99.6041 88.0002H48.3953C44.8956 88.0002 42.0513 85.1537 42.0513 81.6561V42.4162C42.0513 38.9185 44.8955 36.0721 48.3953 36.0721H54.7372V19.2625C54.7372 8.64273 63.3777 0 73.9997 0C84.6196 0 93.2623 8.64273 93.2623 19.2625V36.0721H99.6041C103.102 36.0721 105.948 38.9185 105.948 42.4162ZM101.719 81.6559V42.4162C101.719 41.251 100.772 40.3014 99.6041 40.3014H48.3953C47.228 40.3014 46.2806 41.2509 46.2806 42.4162V81.6561C46.2806 82.8212 47.228 83.7708 48.3953 83.7708H99.6043C100.772 83.7707 101.719 82.8212 101.719 81.6559ZM89.033 36.0721V19.2625C89.033 10.973 82.2893 4.22933 73.9997 4.22933C65.7102 4.22933 58.9665 10.973 58.9665 19.2625V36.0721H89.033Z" fill="#666666"/>
<path d="M101.719 42.4162V81.6561C101.719 82.8212 100.772 83.7708 99.6043 83.7708H48.3955C47.2281 83.7708 46.2808 82.8214 46.2808 81.6561V42.4162C46.2808 41.251 47.2281 40.3014 48.3955 40.3014H99.6045C100.772 40.3014 101.719 41.2509 101.719 42.4162ZM80.0076 62.6261C81.7396 60.985 82.7334 58.6738 82.7334 56.2863C82.7334 51.4712 78.815 47.5527 73.9997 47.5527C69.1845 47.5527 65.2661 51.4711 65.2661 56.2863C65.2661 58.6738 66.26 60.983 67.9918 62.6261V70.5117C67.9918 73.8232 70.688 76.5194 73.9996 76.5194C77.3111 76.5194 80.0073 73.8232 80.0073 70.5117V62.6261H80.0076Z" fill="#CCCCCC"/>
<path d="M82.7336 56.2863C82.7336 58.6738 81.7396 60.9852 80.0078 62.6261V70.5117C80.0078 73.8232 77.3116 76.5194 74.0001 76.5194C70.6886 76.5194 67.9924 73.8232 67.9924 70.5117V62.6261C66.2604 60.983 65.2666 58.6738 65.2666 56.2863C65.2666 51.4712 69.185 47.5527 74.0003 47.5527C78.8155 47.5527 82.7336 51.4711 82.7336 56.2863ZM77.0894 59.564C78.0008 58.7055 78.5041 57.5401 78.5041 56.2863C78.5041 53.8038 76.4825 51.782 73.9997 51.782C71.5172 51.782 69.4954 53.8036 69.4954 56.2863C69.4954 57.5403 69.9987 58.7055 70.9101 59.564C71.7434 60.3506 72.2212 61.4481 72.2212 62.5775V70.5117C72.2212 71.4909 73.0183 72.2901 73.9996 72.2901C74.9808 72.2901 75.778 71.4907 75.778 70.5117V62.5775C75.7783 61.4482 76.2563 60.3506 77.0894 59.564Z" fill="#666666"/>
<path d="M78.5044 56.2863C78.5044 57.5403 78.0012 58.7054 77.0897 59.564C76.2565 60.3506 75.7786 61.4481 75.7786 62.5775V70.5117C75.7786 71.4909 74.9815 72.2901 74.0003 72.2901C73.019 72.2901 72.2219 71.4907 72.2219 70.5117V62.5775C72.2219 61.4482 71.7439 60.3506 70.9108 59.564C69.9993 58.7054 69.4961 57.5401 69.4961 56.2863C69.4961 53.8037 71.5177 51.782 74.0004 51.782C76.4826 51.782 78.5044 53.8036 78.5044 56.2863Z" fill="white"/>
</g>
<defs>
<clipPath id="clip0">
<rect x="30" width="88" height="88" fill="white"/>
</clipPath>
</defs>
</svg>
